<svg xmlns="http://www.w3.org/2000/svg" viewBox="0 0 803.79 919.49"><g id="katman_2" data-name="katman 2"><g id="object"><path d="M400.62,551.89a4.76,4.76,0,0,1-1.66-.29,2.65,2.65,0,0,1-1.64-1.46,3.49,3.49,0,0,1,0-1.95A30.36,30.36,0,0,1,402.84,536c2.6-3.44,5.06-6.69,10.16-4.65h0a8.22,8.22,0,0,1,3.32,2.2,6,6,0,0,1,1.32,3.89,8.32,8.32,0,0,1-1.11,4.09c-1.39,2.44-3.77,4.22-6.14,5.78-1.52,1-3.08,2-4.66,2.86A11,11,0,0,1,400.62,551.89Zm9.44-21.1c-3.18,0-5.11,2.56-7.14,5.24a30.23,30.23,0,0,0-5.51,12.18,3.37,3.37,0,0,0,0,1.89,2.55,2.55,0,0,0,1.59,1.4c2.19.82,4.61-.27,6.68-1.45,1.57-.9,3.14-1.86,4.65-2.85,2.36-1.55,4.73-3.32,6.12-5.75a7,7,0,0,0-.2-7.86,8.15,8.15,0,0,0-3.29-2.18h0A7.85,7.85,0,0,0,410.06,530.79Z"/><path d="M397,565.36a8.06,8.06,0,0,1-5.19-1.79,5.7,5.7,0,0,1-1.92-2.6,24.41,24.41,0,0,1-.9-4.58l0-.29c-1.16-8.89-2.16-16-3.13-22.23v0c-.34-2.22-.74-4.73.31-7.05a12.39,12.39,0,0,1,.79-1.43c.21-.33.42-.67.6-1a12.27,12.27,0,0,0,1.07-5.87,6.92,6.92,0,0,1,.33-2.53,3.19,3.19,0,0,1,1.83-1.89,9.71,9.71,0,0,1,3.19-.62l.23,0a88.66,88.66,0,0,0,9.31-1.41,96.93,96.93,0,0,1,11-1.6l1.11-.09c.85-.07,1.74-.14,2.6-.17a13.66,13.66,0,0,1,3.73.24,6.52,6.52,0,0,1,3.42,1.94,7.14,7.14,0,0,1,1.57,3.94,25.55,25.55,0,0,1,.11,2.61c0,.51,0,1,0,1.56a21.65,21.65,0,0,0,1.95,8.09c.19.39.39.77.58,1.15a10.26,10.26,0,0,1,1.44,4.19,8.52,8.52,0,0,1-.61,3.4c-2,5.47-6.22,9.57-11.07,14-3.38,3.08-7,6.13-11.18,9.35a39.81,39.81,0,0,1-5.07,3.53,7.16,7.16,0,0,1-2.08.75A20.3,20.3,0,0,1,397,565.36Zm22.24-55.16-1.07,0c-.87,0-1.75.1-2.61.17l-1.1.08a99,99,0,0,0-11,1.61,89.24,89.24,0,0,1-9.32,1.41l-.23,0a9.73,9.73,0,0,0-3.16.61c-1.88.81-2.12,2.56-2.1,4.33a12.32,12.32,0,0,1-1.08,5.91h0c-.19.36-.4.7-.6,1a13.15,13.15,0,0,0-.79,1.42c-1,2.29-.66,4.68-.3,7v.05c1,6.29,2,13.35,3.13,22.23l0,.3a25,25,0,0,0,.89,4.56,5.7,5.7,0,0,0,1.89,2.55,8.1,8.1,0,0,0,2.89,1.48,13.09,13.09,0,0,0,6.2-.21A7.25,7.25,0,0,0,403,564,38.66,38.66,0,0,0,408,560.5c4.14-3.21,7.79-6.27,11.17-9.34,4.84-4.41,9-8.5,11-14a8.31,8.31,0,0,0,.61-3.36,10.23,10.23,0,0,0-1.43-4.15c-.19-.37-.39-.76-.57-1.15a21.64,21.64,0,0,1-2-8.13c0-.52,0-1,0-1.55a25.31,25.31,0,0,0-.11-2.61,7,7,0,0,0-1.54-3.88,6.5,6.5,0,0,0-3.37-1.91A11.29,11.29,0,0,0,419.21,510.2Z"/><path d="M395.84,580.44a12.58,12.58,0,0,1-6.2-1.47,13.36,13.36,0,0,1-3.5-2.84,10.94,10.94,0,0,1-2.29-3.89,68.4,68.4,0,0,1-1.64-6.68L382,564.4a347.82,347.82,0,0,0-9.51-35.68c-1.22-3.7-2.59-7.89-1-11.88a17.11,17.11,0,0,1,1.23-2.37,18,18,0,0,0,.91-1.67c1.51-3.15,1.24-6.73.79-9.82s-.42-6.54,3.34-7.87a14,14,0,0,1,5.41-.5l.65,0c7.76.26,15.44-1.41,23.57-3.18,3.34-.73,6.8-1.48,10.28-2.09l1.7-.3c1.48-.27,3-.55,4.53-.77a22.48,22.48,0,0,1,6.43-.23,10.05,10.05,0,0,1,6.09,3.08,11.18,11.18,0,0,1,2.5,7c.07,1.37,0,2.74-.06,4.07-.05,1-.1,2-.09,3a26.77,26.77,0,0,0,3.79,13.33c.43.7.89,1.39,1.36,2.07,1.42,2.07,2.88,4.22,3.24,6.85a13.11,13.11,0,0,1-.75,6c-3,9.12-9.87,16.33-16.1,22.38-6.67,6.48-13.89,12.42-19.43,16.87A63.66,63.66,0,0,1,401.9,579a10.63,10.63,0,0,1-3.83,1.28A19.21,19.21,0,0,1,395.84,580.44Zm-14.39-85A10,10,0,0,0,378,496c-3.14,1.11-3.18,4-2.75,6.89.47,3.22.75,7-.86,10.34h0c-.29.6-.63,1.18-.95,1.73a15.59,15.59,0,0,0-1.17,2.25c-1.46,3.69-.13,7.72,1,11.27a349.55,349.55,0,0,1,9.54,35.77l.25,1.17a65.84,65.84,0,0,0,1.61,6.59,10,10,0,0,0,2.1,3.56,12.7,12.7,0,0,0,3.27,2.66,12.91,12.91,0,0,0,7.88,1.22,9.8,9.8,0,0,0,3.5-1.18,62.17,62.17,0,0,0,8.8-6.26c5.53-4.44,12.72-10.36,19.38-16.82,6.14-6,12.95-13.08,15.87-22a12.47,12.47,0,0,0,.71-5.56c-.33-2.42-1.67-4.39-3.09-6.47-.48-.69-.95-1.38-1.39-2.1a27.68,27.68,0,0,1-3.92-13.79c0-1,0-2.09.09-3.1.06-1.3.13-2.65.06-4a10.43,10.43,0,0,0-2.27-6.41,9.18,9.18,0,0,0-5.55-2.79,21.46,21.46,0,0,0-6.17.23c-1.5.22-3,.5-4.5.76l-1.7.31c-3.47.61-6.92,1.36-10.25,2.08-8.18,1.78-15.91,3.46-23.79,3.2l-.65,0C382.55,495.49,382,495.47,381.45,495.47Z"/><path d="M393.79,594.9a14.49,14.49,0,0,1-8.79-2.82,18.33,18.33,0,0,1-3.87-4,17.14,17.14,0,0,1-2.5-4.88c-.84-2.75-1.53-5.57-2.2-8.3l-.6-2.45a369.82,369.82,0,0,0-15.91-49.2c-1.94-4.78-4.35-10.72-2.35-16.12a21.44,21.44,0,0,1,1.62-3.21c.43-.77.89-1.55,1.26-2.36l0,0,0,0c2.12-4.64,1.47-9.81.56-14.25-.86-4.25-1.06-8.81,4-10.44a18.48,18.48,0,0,1,7.37-.35l1.05.08c12.43,1,24.51-2,37.31-5.11,3.35-.82,6.82-1.67,10.27-2.43l1.87-.42c2.24-.51,4.57-1,6.84-1.46a29.89,29.89,0,0,1,8.92-.7,12.85,12.85,0,0,1,8.27,4c2.51,2.82,3.13,6.72,3.22,9.5.05,1.83-.08,3.69-.21,5.48-.11,1.49-.22,3-.23,4.54a34.51,34.51,0,0,0,5.74,19c.68,1,1.44,2,2.17,3,2.12,2.8,4.31,5.68,4.92,9.23a17.28,17.28,0,0,1-.86,8.17c-3.71,12.07-12.25,21.75-20.92,30.42A364.83,364.83,0,0,1,413.08,584a85.64,85.64,0,0,1-12.67,9.08,13.17,13.17,0,0,1-5.29,1.73C394.67,594.88,394.23,594.9,393.79,594.9ZM368.93,476.4a12.59,12.59,0,0,0-3.9.54c-5,1.61-4.77,6.13-3.92,10.33.91,4.46,1.56,9.64-.57,14.31h0c-.37.81-.83,1.6-1.27,2.37a21.24,21.24,0,0,0-1.6,3.2c-2,5.36.31,11,2.34,16a370.45,370.45,0,0,1,15.92,49.21l.6,2.46c.67,2.72,1.36,5.54,2.2,8.29a16.91,16.91,0,0,0,2.48,4.85,18.37,18.37,0,0,0,3.85,4,14.66,14.66,0,0,0,10.05,2.75,13.32,13.32,0,0,0,5.25-1.71A86.08,86.08,0,0,0,413,584a362.5,362.5,0,0,0,27.63-24.34c8.67-8.66,17.2-18.33,20.91-30.38a17.2,17.2,0,0,0,.85-8.12c-.61-3.52-2.79-6.4-4.9-9.19-.73-1-1.49-1.95-2.17-3a34.65,34.65,0,0,1-5.76-19c0-1.53.12-3.06.23-4.54.13-1.79.26-3.65.21-5.48-.09-2.76-.71-6.64-3.2-9.43a12.71,12.71,0,0,0-8.21-3.92,29.65,29.65,0,0,0-8.88.7c-2.27.43-4.6.95-6.84,1.46l-1.87.41c-3.45.77-6.92,1.62-10.27,2.44-12.81,3.13-24.91,6.08-37.34,5.11l-1-.08C371.23,476.5,370.07,476.4,368.93,476.4Z"/><path d="M390.43,609.86a15.68,15.68,0,0,1-10.25-4.4,24.29,24.29,0,0,1-4.35-5.28,25.34,25.34,0,0,1-2.78-6c-.95-3.14-1.8-6.36-2.62-9.46-.36-1.39-.74-2.83-1.12-4.23A423,423,0,0,0,347,517.77c-2.74-6.09-6.16-13.67-3.67-20.62a26.16,26.16,0,0,1,2-4.11c.55-1,1.12-2,1.59-3l0,0,0,0c2.68-6,1.66-12.7.31-18.44-.55-2.35-1.11-5.38-.52-8,.63-2.76,2.4-4.55,5.42-5.47s6.34-.58,9.49-.23l1.42.15a93.07,93.07,0,0,0,25.35-1.22c8.44-1.44,17.05-3.7,25.37-5.89,3.44-.9,7-1.83,10.51-2.7l1.77-.44c3.1-.77,6.31-1.57,9.45-2.25a38.36,38.36,0,0,1,11.5-1.18,16.1,16.1,0,0,1,10.7,5c3.24,3.63,4,8.68,4,12.28a67.07,67.07,0,0,1-.36,7c-.17,1.95-.34,4-.36,6A42.29,42.29,0,0,0,468.69,499c.93,1.31,2,2.6,3,3.84,2.84,3.55,5.79,7.22,6.66,11.77.58,3,.27,6.34-1,10.55-4.63,15.6-15.67,28.28-25.86,38.64-11.49,11.68-24,22.13-35.87,31.84-5.16,4.23-10.49,8.6-16.48,11.87a21.39,21.39,0,0,1-6.89,2.21A10.75,10.75,0,0,1,390.43,609.86ZM356.64,457.63a15.19,15.19,0,0,0-4.44.59c-6.54,2-6.11,7.87-4.83,13.34,1.35,5.75,2.38,12.45-.32,18.5-.47,1-1,2.05-1.59,3a26.06,26.06,0,0,0-2,4.1c-2.47,6.91.94,14.47,3.67,20.54a423.11,423.11,0,0,1,22.3,62.7c.38,1.41.76,2.84,1.13,4.23.82,3.11,1.66,6.32,2.61,9.46a25.4,25.4,0,0,0,2.78,6,24,24,0,0,0,4.33,5.26c3.71,3.33,8.07,4.87,12,4.22a21,21,0,0,0,6.85-2.2c6-3.26,11.31-7.63,16.47-11.85,11.84-9.71,24.37-20.17,35.86-31.84,10.18-10.35,21.21-23,25.83-38.6,1.25-4.19,1.56-7.53,1-10.5-.87-4.53-3.8-8.19-6.64-11.73-1-1.24-2-2.53-3-3.84A42.27,42.27,0,0,1,461,474.56c0-2,.19-4,.36-6a66.87,66.87,0,0,0,.36-7c-.06-3.58-.81-8.61-4-12.21A16,16,0,0,0,447,444.47a38.23,38.23,0,0,0-11.47,1.18c-3.14.68-6.34,1.47-9.44,2.24l-1.78.44c-3.51.87-7.07,1.81-10.5,2.71-8.33,2.18-16.94,4.45-25.38,5.89a93.3,93.3,0,0,1-25.38,1.22l-1.42-.15A44.09,44.09,0,0,0,356.64,457.63Z"/><path d="M387.75,624.75c-4.23,0-8.66-2.07-12.39-5.83a30.12,30.12,0,0,1-4.82-6.55,35.16,35.16,0,0,1-3.08-7.17c-1-3.37-1.95-6.82-2.87-10.14-.58-2.13-1.19-4.34-1.8-6.49A484.7,484.7,0,0,0,334.1,512.4c-3.54-7.41-8-16.63-5-25.13a32.05,32.05,0,0,1,2.45-5c.67-1.19,1.35-2.41,1.91-3.67,3.26-7.46,1.75-16,.06-22.62-.73-2.88-1.48-6.6-.8-9.8.72-3.38,2.89-5.56,6.61-6.67s7.76-.6,11.62-.11l1.79.23c9.65,1.14,20.15.68,32.07-1.41,10.65-1.87,21.49-4.85,32-7.74,3.55-1,7.22-2,10.84-2.94l1.57-.41c4-1.06,8.11-2.15,12.15-3.09,4.47-1,9.23-2,14.1-1.64a19.36,19.36,0,0,1,13.11,6c4,4.44,4.85,10.64,4.88,15.06a84.26,84.26,0,0,1-.5,8.45c-.23,2.42-.47,4.93-.51,7.43A50.24,50.24,0,0,0,482,489.15c1.18,1.6,2.49,3.18,3.76,4.71,3.57,4.31,7.27,8.76,8.4,14.32.75,3.64.4,7.75-1.1,12.93a85.64,85.64,0,0,1-12.47,25.25A173.11,173.11,0,0,1,462.23,568c-13.78,14.16-28.73,26.69-44.11,39.35-6.35,5.22-12.91,10.62-20.28,14.65a24.07,24.07,0,0,1-8.5,2.69A12,12,0,0,1,387.75,624.75ZM344.42,438.92a17.61,17.61,0,0,0-5.05.66c-3.69,1.09-5.83,3.25-6.54,6.59-.68,3.18.07,6.88.8,9.75a53.86,53.86,0,0,1,1.85,11.38,25.35,25.35,0,0,1-1.92,11.31h0c-.56,1.27-1.25,2.49-1.91,3.68a32.28,32.28,0,0,0-2.45,5c-2.95,8.46,1.45,17.66,5,25.05a483.33,483.33,0,0,1,28.69,76.19c.62,2.16,1.22,4.36,1.81,6.49.91,3.33,1.86,6.77,2.87,10.14a35.78,35.78,0,0,0,3.06,7.16,30.45,30.45,0,0,0,4.81,6.52c4.18,4.21,9.24,6.29,13.9,5.7a23.84,23.84,0,0,0,8.46-2.68c7.36-4,13.92-9.42,20.26-14.64,15.38-12.65,30.33-25.19,44.1-39.34a170.69,170.69,0,0,0,18.31-21.59,85.37,85.37,0,0,0,12.45-25.21c1.5-5.18,1.85-9.27,1.11-12.89-1.13-5.53-4.82-10-8.39-14.28-1.27-1.53-2.58-3.11-3.76-4.71a50.38,50.38,0,0,1-9.54-29.95c0-2.49.28-5,.51-7.43a84.06,84.06,0,0,0,.5-8.44c0-4.4-.91-10.57-4.86-15-3-3.41-7.67-5.51-13-5.93-4.85-.37-9.61.61-14.07,1.64-4,.94-8.16,2-12.14,3.08l-1.58.42c-3.62.95-7.29,2-10.84,2.94-10.48,2.88-21.32,5.86-32,7.74-11.94,2.09-22.44,2.55-32.1,1.41l-1.79-.23A53.09,53.09,0,0,0,344.42,438.92Z"/><path d="M385,639.65a16.66,16.66,0,0,1-7.35-1.81,24.38,24.38,0,0,1-7.14-5.47,36.06,36.06,0,0,1-5.31-7.81,47.59,47.59,0,0,1-3.36-8.31c-1-3.39-2-6.84-2.92-10.17-.87-3.09-1.77-6.29-2.69-9.41A549.54,549.54,0,0,0,321.2,507c-4.35-8.73-9.77-19.59-6.32-29.63a37.69,37.69,0,0,1,2.86-5.93c.78-1.39,1.59-2.84,2.24-4.33h0c3.84-8.85,1.91-19-.19-26.81-.91-3.42-1.86-7.82-1.08-11.62.82-4,3.37-6.57,7.81-7.86s9.16-.62,13.74,0l2.16.3c11.68,1.51,24.37,1,38.77-1.6,12.86-2.31,25.91-6,38.54-9.6,3.67-1.05,7.47-2.13,11.21-3.16l1.18-.32c4.93-1.36,10-2.76,15.05-4,5.29-1.29,10.93-2.52,16.69-2.12,6.39.44,11.91,2.92,15.53,7,4.7,5.25,5.71,12.6,5.72,17.84a98.73,98.73,0,0,1-.66,9.93c-.28,2.9-.58,5.89-.64,8.87a58.27,58.27,0,0,0,11.41,35.33c1.43,1.9,3,3.77,4.55,5.58,4.3,5.07,8.75,10.31,10.15,16.87,1.2,5.63-.13,11.44-1.23,15.32a101,101,0,0,1-14.42,29.66A198.11,198.11,0,0,1,473,572.13c-16.05,16.62-33.92,31.64-52.34,46.85-7.54,6.22-15.33,12.65-24.08,17.42a26.32,26.32,0,0,1-10.11,3.18A13.31,13.31,0,0,1,385,639.65ZM332.23,420.2a20.25,20.25,0,0,0-5.69.73c-4.39,1.27-6.92,3.82-7.73,7.79-.77,3.77.17,8.16,1.08,11.56a63.11,63.11,0,0,1,2.35,13.48,29.33,29.33,0,0,1-2.17,13.4h0c-.65,1.5-1.46,2.94-2.24,4.34a37.9,37.9,0,0,0-2.86,5.91c-3.43,10,2,20.85,6.32,29.56a549.09,549.09,0,0,1,35.08,89.68c.91,3.12,1.82,6.31,2.69,9.4.94,3.33,1.91,6.78,2.91,10.17a48.29,48.29,0,0,0,3.36,8.3,36,36,0,0,0,5.29,7.78,24.45,24.45,0,0,0,7.11,5.45,16,16,0,0,0,8.71,1.73,26.28,26.28,0,0,0,10.07-3.16c8.74-4.77,16.53-11.2,24.06-17.42,18.42-15.2,36.29-30.23,52.34-46.84a197.25,197.25,0,0,0,21.28-25.39A100.8,100.8,0,0,0,508.59,517c2.3-8.08,1.8-12.58,1.23-15.27-1.39-6.53-5.83-11.77-10.13-16.83-1.53-1.81-3.12-3.68-4.55-5.58A58.33,58.33,0,0,1,483.71,444c.06-3,.36-6,.65-8.88.32-3.24.65-6.6.65-9.92,0-5.23-1-12.55-5.69-17.78-3.56-4-9.19-6.5-15.47-6.93-.74,0-1.49-.08-2.23-.08a61.28,61.28,0,0,0-14.43,2.19c-5,1.22-10.11,2.63-15.05,4l-1.17.32c-3.74,1-7.54,2.11-11.22,3.15-12.62,3.59-25.68,7.3-38.54,9.61-14.42,2.59-27.11,3.11-38.81,1.59l-2.16-.29A58.47,58.47,0,0,0,332.23,420.2Z"/><path d="M382.41,655c-5.9,0-12.17-3.26-17-8.89a42.9,42.9,0,0,1-5.84-9.14,63,63,0,0,1-3.68-9.53q-1.38-4.71-2.72-9.41c-1.24-4.31-2.51-8.76-3.82-13.1a615.65,615.65,0,0,0-41.43-103.08c-5.19-10.11-11.65-22.7-7.67-34.45a42.44,42.44,0,0,1,3.31-6.89c.89-1.6,1.81-3.26,2.55-5,4.35-10.13,2-21.75-.46-30.74s-3.82-19.64,7.91-23c5.21-1.48,10.71-.66,16,.12l2.53.36c30.49,4.19,60.93-4.68,90.38-13.25,3.88-1.13,7.75-2.25,11.64-3.35l.43-.13c6-1.7,12.21-3.46,18.3-5s12.7-3,19.41-2.6c7.39.47,14,3.42,18.23,8.11,5.51,6.16,6.65,14.76,6.64,20.89a113.82,113.82,0,0,1-.8,11.46c-.35,3.36-.71,6.83-.78,10.27a65.76,65.76,0,0,0,13.22,40.53c1.67,2.19,3.53,4.35,5.33,6.43,5.06,5.87,10.3,11.94,12,19.6,1.43,6.57-.09,13.36-1.37,17.9-7.4,26.37-25.65,47.76-40.73,63.45-18.36,19.11-38.31,35.93-60.61,54.37-8.74,7.23-17.77,14.7-28,20.25a29.41,29.41,0,0,1-11.86,3.71C383.2,654.94,382.81,655,382.41,655ZM320.05,401.87a22.83,22.83,0,0,0-6.22.79c-10.91,3.1-9.81,12.79-7.29,21.87s4.88,21,.42,31.33h0a55.79,55.79,0,0,1-2.6,5.05,41,41,0,0,0-3.24,6.74c-3.86,11.39,2.5,23.79,7.62,33.75a615.4,615.4,0,0,1,41.49,103.23c1.31,4.35,2.59,8.8,3.82,13.11q1.35,4.69,2.72,9.4a62.18,62.18,0,0,0,3.63,9.39,41.59,41.59,0,0,0,5.71,9c4.95,5.79,11.46,9,17.42,8.52a28.43,28.43,0,0,0,11.5-3.6c10.1-5.51,19.1-12.95,27.81-20.15C445.11,611.83,465,595,483.37,576c15-15.61,33.17-36.89,40.52-63.06,1.24-4.45,2.74-11.09,1.35-17.46-1.63-7.45-6.79-13.43-11.78-19.21-1.81-2.09-3.68-4.26-5.36-6.47a66.73,66.73,0,0,1-13.41-41.1c.07-3.48.44-7,.79-10.35.38-3.71.78-7.56.79-11.37,0-6-1.09-14.34-6.41-20.28-4-4.51-10.46-7.36-17.62-7.81-6.58-.41-13.06,1.05-19.13,2.58s-12.28,3.29-18.28,5l-.43.12c-3.88,1.1-7.75,2.23-11.63,3.36-29.54,8.59-60.07,17.48-90.76,13.28l-2.53-.37A65.47,65.47,0,0,0,320.05,401.87Z"/><path d="M379.65,669.47a20.39,20.39,0,0,1-10-2.75,30.63,30.63,0,0,1-8.77-7.46,48,48,0,0,1-6.26-10.33,75.89,75.89,0,0,1-4-10.61c-.75-2.55-1.5-5.15-2.23-7.67-1.69-5.84-3.44-11.88-5.24-17.78a682.88,682.88,0,0,0-47.85-116.64c-3.36-6.4-6.54-12.68-8.46-19-2.27-7.46-2.43-13.87-.51-19.62a48,48,0,0,1,3.69-7.72,59.08,59.08,0,0,0,2.9-5.66h0c5-11.63,2.24-24.92-.69-35.2-1.73-6.06-3.31-13.72-.23-19.23,1.67-3,4.62-5.09,8.77-6.26,5.81-1.62,12-.67,18,.25l2.9.43a136.48,136.48,0,0,0,26.19,1.15,191.69,191.69,0,0,0,26-3.11c17.27-3.19,34.73-8.37,51.62-13.37,4-1.18,8-2.39,12.07-3.56,6.9-2,14-4.07,21.22-5.92,6.19-1.6,12.75-3.13,19.46-3.13.8,0,1.61,0,2.42.06a34.23,34.23,0,0,1,11,2.49,25.6,25.6,0,0,1,9.33,6.49c6.17,6.88,7.42,16.52,7.38,23.4a127.92,127.92,0,0,1-.95,12.91c-.41,3.84-.83,7.81-.92,11.75a74.29,74.29,0,0,0,15.19,46.23c1.93,2.49,4.07,4.94,6.14,7.31,5.76,6.59,11.71,13.41,13.63,22,1.64,7.32-.06,15-1.48,20.08-3.59,12.93-9.59,25.52-18.32,38.48-7,10.46-15.7,20.95-27.24,33-20.63,21.56-43.37,40.76-68.81,61.84-9.91,8.21-20.16,16.7-31.69,23a31.41,31.41,0,0,1-13.31,4.15C380.34,669.46,380,669.47,379.65,669.47ZM307.88,382.74a25.72,25.72,0,0,0-7,.88c-4.12,1.15-7.05,3.25-8.71,6.21-3.07,5.48-1.49,13.11.23,19.15a82.53,82.53,0,0,1,3.36,17.7,38,38,0,0,1-2.66,17.57h0c-.84,1.95-1.9,3.84-2.91,5.67a47,47,0,0,0-3.68,7.7c-1.92,5.73-1.76,12.13.5,19.56,1.92,6.33,5.1,12.6,8.45,19a682.31,682.31,0,0,1,47.86,116.66c1.81,5.9,3.56,11.94,5.25,17.79.73,2.51,1.48,5.11,2.23,7.67a77.85,77.85,0,0,0,3.94,10.59,47.68,47.68,0,0,0,6.25,10.3,30.48,30.48,0,0,0,8.74,7.45,20.06,20.06,0,0,0,10.94,2.7,31.33,31.33,0,0,0,13.26-4.14c11.52-6.28,21.77-14.77,31.67-23,25.44-21.08,48.18-40.28,68.8-61.84,16.86-17.61,37.26-41.65,45.54-71.45,3-10.65,2.27-16.53,1.48-20-1.91-8.55-7.86-15.36-13.61-21.94-2.07-2.37-4.21-4.82-6.14-7.32a74.42,74.42,0,0,1-15.21-46.29c.09-3.95.51-7.92.93-11.76.45-4.21.91-8.57.94-12.9,0-6.86-1.21-16.48-7.35-23.33a25.61,25.61,0,0,0-9.29-6.47,34.42,34.42,0,0,0-11-2.48c-7.53-.43-14.92,1.28-21.84,3.06-7.19,1.86-14.33,3.93-21.23,5.93-4,1.17-8.11,2.38-12.06,3.55-16.9,5-34.36,10.18-51.63,13.37a192,192,0,0,1-26,3.13,138.2,138.2,0,0,1-26.2-1.16l-2.91-.43A72.48,72.48,0,0,0,307.88,382.74Z"/><path d="M377,684.38a22.44,22.44,0,0,1-11.26-3.22,33.63,33.63,0,0,1-9.58-8.46,53.77,53.77,0,0,1-6.74-11.58,96.26,96.26,0,0,1-4.24-11.76q-.7-2.39-1.39-4.77c-2.25-7.77-4.59-15.8-7-23.63a750.74,750.74,0,0,0-54.24-130.12c-3.81-7.14-7.41-14.14-9.61-21.24-2.59-8.32-2.81-15.49-.67-21.91a51.54,51.54,0,0,1,4.1-8.61,69.67,69.67,0,0,0,3.23-6.33h0c5.53-13,2.4-27.89-.95-39.39-2-6.78-3.79-15.36-.36-21.52,1.87-3.34,5.17-5.69,9.82-7,6.49-1.8,13.41-.71,20.11.35l3.27.51A151.64,151.64,0,0,0,341,367.11a211.52,211.52,0,0,0,29.28-3.53c19.46-3.63,39.12-9.54,58.14-15.26,4.1-1.24,8.34-2.51,12.52-3.74,8.43-2.5,16-4.72,23.73-6.74s16-4,24.47-3.54a38,38,0,0,1,12.35,2.75,28.31,28.31,0,0,1,10.44,7.24c6.89,7.68,8.26,18.48,8.2,26.18,0,4.83-.57,9.69-1.08,14.4-.48,4.3-1,8.76-1.07,13.18A82.38,82.38,0,0,0,535,449.73c2.18,2.79,4.59,5.53,6.93,8.18,6.49,7.35,13.2,15,15.38,24.54,1.84,8.08.1,16.25-1.61,22.47-4,14.41-10.6,28.44-20.27,42.89-7.83,11.71-17.44,23.41-30.22,36.81-22.94,24.06-47.42,44.77-77,69.34-11.1,9.21-22.58,18.73-35.49,25.77-5.35,2.92-10.23,4.43-14.91,4.63C377.52,684.38,377.23,684.38,377,684.38ZM295.71,364a28.47,28.47,0,0,0-7.64.95c-4.63,1.28-7.91,3.61-9.76,6.93-3.42,6.13-1.6,14.68.37,21.44a93.07,93.07,0,0,1,3.86,19.8,42.2,42.2,0,0,1-2.92,19.66h0a67.45,67.45,0,0,1-3.24,6.34,52.48,52.48,0,0,0-4.09,8.59c-2.13,6.4-1.91,13.55.67,21.86,2.2,7.08,5.8,14.07,9.61,21.21a751.3,751.3,0,0,1,54.25,130.14c2.43,7.83,4.76,15.86,7,23.63l1.38,4.77a95.5,95.5,0,0,0,4.24,11.75,54.41,54.41,0,0,0,6.72,11.56,33.92,33.92,0,0,0,9.56,8.44,22.36,22.36,0,0,0,11.21,3.2c.28,0,.56,0,.84,0,4.67-.2,9.53-1.71,14.87-4.62,12.9-7,24.38-16.55,35.47-25.75,29.62-24.58,54.1-45.28,77-69.34,12.78-13.4,22.38-25.09,30.21-36.8,9.66-14.43,16.28-28.45,20.26-42.86,1.71-6.2,3.43-14.36,1.6-22.42-2.17-9.55-8.87-17.15-15.36-24.49-2.33-2.65-4.75-5.39-6.92-8.19a82.38,82.38,0,0,1-17.11-51.74c.11-4.43.59-8.89,1.07-13.19.51-4.71,1-9.57,1.08-14.39.07-7.69-1.3-18.45-8.17-26.12a28.57,28.57,0,0,0-10.4-7.21,38.17,38.17,0,0,0-12.33-2.74c-8.42-.45-16.69,1.5-24.44,3.53s-15.29,4.25-23.73,6.74c-4.17,1.23-8.41,2.51-12.51,3.74-19,5.72-38.69,11.64-58.15,15.27a211.79,211.79,0,0,1-29.3,3.53,151.88,151.88,0,0,1-29.57-1.38l-3.27-.51A80.29,80.29,0,0,0,295.71,364Z"/><path d="M374.28,699.3c-8.19,0-16.74-4.88-23-13.16a58.77,58.77,0,0,1-7.21-12.84,113.71,113.71,0,0,1-4.53-12.91l0-.11c-3-10.27-6.05-20.88-9.31-31.22a819.57,819.57,0,0,0-60.62-143.62c-4.26-7.88-8.29-15.6-10.77-23.44-2.91-9.2-3.19-17.12-.84-24.21a57.54,57.54,0,0,1,4.51-9.51,74,74,0,0,0,3.56-7h0c6.11-14.4,2.57-30.86-1.2-43.58-2.22-7.52-4.28-17-.48-23.83,2.06-3.69,5.71-6.27,10.85-7.67,7.16-2,14.8-.74,22.19.46l3.69.59A167.62,167.62,0,0,0,334,348.87a230.21,230.21,0,0,0,32.6-3.95c21.65-4.07,43.52-10.73,64.66-17.16,4.25-1.29,8.64-2.63,13-3.92,8.88-2.67,17.58-5.25,26.23-7.55,7.77-2.08,16-4.07,24.44-4.07.88,0,1.75,0,2.62.06a42,42,0,0,1,13.67,3,31.53,31.53,0,0,1,11.55,8c7.62,8.5,9.12,20.44,9,29-.06,5.33-.65,10.7-1.23,15.89-.54,4.78-1.09,9.72-1.22,14.62a90.39,90.39,0,0,0,19,57.13c2.41,3.09,5.11,6.12,7.71,9.05,7.22,8.11,14.69,16.5,17.12,27.09,2.06,8.93.16,18-1.73,24.85-4.35,15.91-11.62,31.38-22.22,47.31-8.62,13-19.17,25.86-33.2,40.61-27.21,28.63-58.06,54.24-85.27,76.84-12.29,10.21-25,20.76-39.29,28.55-6.12,3.33-11.37,5-16.52,5.12Zm-90.73-354a31,31,0,0,0-8.31,1c-5.12,1.4-8.75,4-10.79,7.62-3.78,6.79-1.72,16.26.49,23.76a101.71,101.71,0,0,1,4.36,21.91c.57,8.25-.46,15.36-3.16,21.74h0a76.65,76.65,0,0,1-3.57,7,56.51,56.51,0,0,0-4.5,9.49c-2.34,7.07-2.07,15,.83,24.15,2.48,7.83,6.51,15.55,10.76,23.43A818.66,818.66,0,0,1,330.3,629c3.25,10.34,6.33,21,9.31,31.22l0,.12a117.35,117.35,0,0,0,4.53,12.89,58.59,58.59,0,0,0,7.2,12.82c6.23,8.25,14.75,13.12,22.91,13.12h.63c5.13-.16,10.37-1.78,16.47-5.11,14.29-7.79,27-18.33,39.27-28.53,27.21-22.6,58.06-48.21,85.27-76.84,14-14.74,24.57-27.64,33.19-40.6,10.59-15.92,17.85-31.38,22.21-47.27,1.88-6.87,3.78-15.9,1.73-24.8-2.44-10.57-9.89-19-17.1-27.06-2.61-2.93-5.3-6-7.72-9.05a90.44,90.44,0,0,1-19-57.19c.12-4.91.67-9.85,1.21-14.63.58-5.19,1.17-10.55,1.23-15.88.09-8.5-1.41-20.42-9-28.89a31.18,31.18,0,0,0-11.5-8,42,42,0,0,0-13.64-3c-.88,0-1.75-.06-2.62-.06-8.41,0-16.65,2-24.42,4.06-8.64,2.31-17.34,4.89-26.23,7.55-4.32,1.3-8.71,2.63-13,3.93-21.15,6.43-43,13.08-64.67,17.16A231.77,231.77,0,0,1,334,349a167.83,167.83,0,0,1-32.93-1.61l-3.68-.59A87.82,87.82,0,0,0,283.55,345.27Z"/><path d="M371.57,714.61c-9.12,0-18.59-5.5-25.41-14.79a65.2,65.2,0,0,1-7.75-14.19,143.66,143.66,0,0,1-4.83-14.09c-4-13.78-7.13-24.35-10.27-34.27a888.55,888.55,0,0,0-67-157c-8-14.57-18.87-34.51-13-52.47a62.12,62.12,0,0,1,5-10.48,82.49,82.49,0,0,0,3.87-7.62h0c6.62-15.67,2.69-33.62-1.46-47.5-2.49-8.31-4.81-18.83-.58-26.43,2.3-4.14,6.38-7,12.13-8.58,7.93-2.17,16.35-.78,24.49.58l4.05.65c48.56,7.5,96.66-7.28,143.19-21.57q6.71-2.07,13.42-4.11c9.25-2.8,19.09-5.75,28.75-8.36,9.42-2.55,19.5-5,29.78-4.49,11.32.55,21.49,5,27.91,12.12,8.44,9.41,10.08,22.61,10,32-.07,5.85-.74,11.73-1.38,17.41-.6,5.24-1.21,10.66-1.35,16a98,98,0,0,0,20.78,62.32c2.66,3.38,5.63,6.69,8.49,9.89,8,8.92,16.24,18.14,19,29.84,2.29,9.84.21,19.82-1.86,27.42-11,40.52-38.1,72.75-60.44,96.31-29.7,31.31-63.62,59.5-93.55,84.37C420,688.8,406.05,700.39,390.34,709c-6.87,3.75-12.69,5.54-18.31,5.66ZM271.39,326.93a33.08,33.08,0,0,0-8.87,1.1c-5.51,1.49-9.41,4.23-11.58,8.15-4.07,7.3-1.79,17.59.65,25.73,4.2,14,8.16,32.18,1.43,48.11h0a84.36,84.36,0,0,1-3.91,7.71,60.94,60.94,0,0,0-4.89,10.32c-5.79,17.59,4.57,36.53,12.89,51.76A888.53,888.53,0,0,1,324.16,637c3.15,9.93,6.32,20.5,10.29,34.29a136.78,136.78,0,0,0,4.8,14,64,64,0,0,0,7.63,14c6.77,9.22,16.21,14.6,25.13,14.43,5.48-.11,11.16-1.88,17.9-5.55,15.64-8.52,29.55-20.08,43-31.26,29.9-24.86,63.8-53,93.47-84.3,22.27-23.48,49.24-55.6,60.22-95.92,2-7.5,4.1-17.34,1.85-27-2.67-11.47-10.84-20.6-18.75-29.43-2.87-3.22-5.85-6.54-8.53-9.94a99.1,99.1,0,0,1-21-62.9c.15-5.41.77-10.85,1.36-16.11.64-5.66,1.31-11.52,1.38-17.32.11-9.25-1.49-22.21-9.74-31.4-6.26-7-16.2-11.29-27.29-11.83-10.15-.5-20.14,1.93-29.5,4.46-9.64,2.6-19.47,5.55-28.72,8.35q-6.7,2-13.42,4.11c-46.62,14.32-94.83,29.14-143.59,21.6l-4.06-.66A95,95,0,0,0,271.39,326.93Z"/><path d="M369.49,729.13h-.35a30.07,30.07,0,0,1-15.44-4.75,42.35,42.35,0,0,1-12-11.36,70.32,70.32,0,0,1-8.17-15.37,158.92,158.92,0,0,1-5.11-15.19c-4.1-14.29-7.66-26.11-11.22-37.22a957.59,957.59,0,0,0-73.4-170.59c-5.16-9.35-10-18.52-13.08-27.87-3.55-10.94-3.93-20.36-1.17-28.79a65.66,65.66,0,0,1,5.34-11.3,91.52,91.52,0,0,0,4.22-8.33h0c7.23-17.17,2.89-36.79-1.71-52a69.22,69.22,0,0,1-3.1-15c-.38-5.46.39-9.83,2.37-13.39,2.43-4.39,6.78-7.45,12.93-9.11,8.52-2.32,17.63-.78,26.44.71l4.42.72a195.69,195.69,0,0,0,39.38,2.07,271,271,0,0,0,39-4.72c25.88-4.91,52-13,77.23-20.75,4.86-1.5,9.89-3.05,14.84-4.56,9.2-2.83,20.11-6.13,31.24-9.17,10.22-2.79,21.13-5.46,32.25-4.94a49.47,49.47,0,0,1,16.3,3.51,37,37,0,0,1,13.75,9.48c9.08,10.12,10.83,24.36,10.69,34.53a186.11,186.11,0,0,1-1.52,18.86c-.65,5.72-1.33,11.63-1.49,17.5a106.59,106.59,0,0,0,22.76,68c2.91,3.68,6.16,7.29,9.3,10.77,8.68,9.64,17.65,19.61,20.61,32.22,2.47,10.54.24,21.36-2,29.61a178.25,178.25,0,0,1-10.87,29.16,222.53,222.53,0,0,1-15.28,27c-10.09,15.3-22.88,31.07-39.12,48.23-32.16,34-69.13,64.71-101.75,91.84-14.67,12.19-29.83,24.8-46.89,34.1C383.33,726.06,376.7,729.13,369.49,729.13ZM259.23,307.79a36.44,36.44,0,0,0-9.64,1.19c-6.11,1.65-10.44,4.7-12.86,9.06-2,3.54-2.74,7.9-2.36,13.33a69.08,69.08,0,0,0,3.1,15c3.09,10.22,4.8,18.52,5.37,26.12.73,9.84-.47,18.32-3.67,25.91h0a89.27,89.27,0,0,1-4.23,8.34A67.31,67.31,0,0,0,229.61,418c-2.75,8.41-2.37,17.81,1.18,28.72,3,9.35,7.91,18.51,13.07,27.86a957.81,957.81,0,0,1,73.41,170.61c3.55,11.11,7.11,22.93,11.21,37.22,1.76,6.05,3.38,10.88,5.11,15.19A70.47,70.47,0,0,0,341.75,713a42.4,42.4,0,0,0,12,11.33A30,30,0,0,0,369.14,729h.35c7.19,0,13.8-3.06,19.33-6.08,17.05-9.29,32.21-21.9,46.87-34.09C468.31,661.73,505.29,631,537.43,597c16.24-17.15,29-32.92,39.12-48.22a222.22,222.22,0,0,0,15.27-26.94,178,178,0,0,0,10.86-29.14c2.22-8.24,4.45-19.05,2-29.57-2.95-12.58-11.92-22.54-20.58-32.17-3.14-3.49-6.39-7.1-9.31-10.78A106.7,106.7,0,0,1,552,352.12c.16-5.88.84-11.79,1.49-17.51A186.11,186.11,0,0,0,555,315.75c.14-10.14-1.6-24.35-10.66-34.45a37.09,37.09,0,0,0-13.72-9.46,49.24,49.24,0,0,0-16.27-3.5c-11.11-.52-22,2.15-32.22,4.94-11.12,3-22,6.34-31.23,9.17-4.95,1.5-10,3.06-14.84,4.56-25.25,7.78-51.35,15.84-77.24,20.75a271.09,271.09,0,0,1-39,4.72,196,196,0,0,1-39.41-2.07c-1.47-.23-3-.48-4.42-.73A102.53,102.53,0,0,0,259.23,307.79Z"/><path d="M366.71,744.45h-.46c-10.91-.19-22-6.83-29.72-17.77a77.05,77.05,0,0,1-8.7-16.7c-1.78-4.57-3.45-9.62-5.41-16.38-4.24-14.79-8.21-27.92-12.14-40.15a1026.77,1026.77,0,0,0-79.77-184C221,452.39,208,429,214.91,408a73.26,73.26,0,0,1,5.78-12.27,96.23,96.23,0,0,0,4.54-8.95h0c7.75-18.44,3-39.55-2-55.88-3-9.76-5.76-22.1-.82-31,2.68-4.84,7.46-8.21,14.21-10,9.29-2.51,19.18-.82,28.73.81,1.6.28,3.2.55,4.79.8,57.3,9.13,113.93-8.48,168.7-25.5q7.61-2.37,15.21-4.71c10-3.09,21.79-6.7,33.75-10,11.08-3,22.89-6,35-5.43,13.29.6,25.23,5.75,32.76,14.13,9.89,11,11.78,26.53,11.62,37.58a204.51,204.51,0,0,1-1.67,20.4c-.72,6.17-1.46,12.56-1.63,18.9A114.32,114.32,0,0,0,588.43,410c3.16,4,6.68,7.85,10.08,11.62C608,432.1,617.71,442.89,621,456.6c2.72,11.48.3,23.24-2.1,32.2-13.17,48.5-46.43,87.56-70.3,112.73-34,36.15-72.67,68.29-110,99.37-15.87,13.2-32.28,26.85-50.76,36.92C381.75,741.11,374.54,744.45,366.71,744.45Zm-119.64-455a38.89,38.89,0,0,0-10.2,1.25c-6.51,1.75-11.1,5-13.66,9.59-4.77,8.61-2,20.72.9,30.31,5,16.47,9.81,37.78,1.95,56.49h0a98.09,98.09,0,0,1-4.58,9,72.07,72.07,0,0,0-5.71,12.11C209,428.93,221.9,452.09,231.3,469a1026.77,1026.77,0,0,1,79.83,184.17c3.94,12.23,7.92,25.37,12.15,40.17,2,6.74,3.61,11.76,5.39,16.3a76.27,76.27,0,0,0,8.59,16.52c7.54,10.7,18.38,17.2,29,17.38,7.79.15,15-3.22,21.09-6.52,18.4-10,34.78-23.65,50.61-36.82,37.33-31.07,75.93-63.19,109.94-99.3,49.7-52.4,63.8-89.21,70.08-112.35,2.38-8.86,4.77-20.47,2.1-31.75-3.19-13.49-12.87-24.2-22.24-34.55-3.41-3.77-6.94-7.68-10.11-11.66A115.22,115.22,0,0,1,563,336.79c.18-6.37.92-12.78,1.64-19a203,203,0,0,0,1.66-20.3c.16-10.9-1.69-26.15-11.39-37-7.37-8.21-19.08-13.25-32.13-13.84-12-.53-23.68,2.37-34.69,5.4-11.95,3.29-23.75,6.89-33.72,10q-7.6,2.32-15.21,4.71c-54.87,17.05-111.6,34.69-169.11,25.53-1.59-.25-3.19-.53-4.8-.8C259.22,290.5,253.08,289.45,247.07,289.45Z"/><path d="M363.93,759h-.56a34.32,34.32,0,0,1-17.66-5.7A49.22,49.22,0,0,1,332,739.89,82.67,82.67,0,0,1,322.91,722c-2.3-6-4.16-12.21-5.69-17.49-4.46-15.58-8.74-29.68-13.08-43.1A1095.84,1095.84,0,0,0,218,463.85c-6.06-10.83-11.8-21.44-15.39-32.3-4.19-12.68-4.68-23.6-1.51-33.37a77.59,77.59,0,0,1,6.17-13.09,103.94,103.94,0,0,0,4.88-9.66h0c8.37-19.95,3.22-42.73-2.21-60.34a80.08,80.08,0,0,1-3.68-17.45c-.47-6.33.41-11.42,2.69-15.54,2.82-5.09,7.87-8.64,15-10.54,9.9-2.67,20.48-.84,30.7.93,1.69.29,3.44.6,5.15.87a225.57,225.57,0,0,0,46.16,2.53,310.7,310.7,0,0,0,45.66-5.57c30.3-5.81,60.83-15.36,90.35-24.6,5.11-1.59,10.39-3.25,15.58-4.85,10.69-3.33,23.35-7.22,36.24-10.8,10.94-3,22.56-5.95,34.42-5.95,1,0,2,0,3,.06a57.26,57.26,0,0,1,18.93,4,42.86,42.86,0,0,1,16,11c10.55,11.75,12.54,28.28,12.36,40.08a218.17,218.17,0,0,1-1.82,21.85c-.77,6.66-1.58,13.54-1.78,20.37a122.85,122.85,0,0,0,26.55,78.93c3.41,4.27,7.21,8.46,10.89,12.51a189.51,189.51,0,0,1,14.6,17.43c4.83,6.83,7.93,13.34,9.49,19.9,2.91,12.22.34,24.79-2.23,34.38a206.19,206.19,0,0,1-12.46,33.74,257.77,257.77,0,0,1-17.56,31.22c-11.68,17.83-26.43,36.08-45.1,55.81-36.58,38.86-78.08,73.42-118.22,106.83-17,14.19-34.66,28.86-54.49,39.67C379.87,755.41,372.2,759,363.93,759Zm-129-488.66a42.29,42.29,0,0,0-11,1.34c-7.11,1.9-12.14,5.43-14.94,10.5-2.27,4.1-3.15,9.17-2.68,15.48A79.35,79.35,0,0,0,210,315.06c5.43,17.63,10.58,40.43,2.2,60.41h0a104.11,104.11,0,0,1-4.88,9.67,76.94,76.94,0,0,0-6.16,13.07c-3.17,9.75-2.68,20.65,1.51,33.31,3.59,10.85,9.32,21.46,15.38,32.28a1097.08,1097.08,0,0,1,86.19,197.59c4.34,13.42,8.62,27.52,13.08,43.1,1.52,5.28,3.39,11.48,5.69,17.48a82.58,82.58,0,0,0,9.11,17.87,49.1,49.1,0,0,0,13.64,13.34,34.17,34.17,0,0,0,17.61,5.69h.56c8.25,0,15.9-3.55,22.33-7,19.82-10.8,37.44-25.47,54.48-39.65,40.13-33.42,81.64-68,118.2-106.83,18.67-19.72,33.42-38,45.09-55.8a256.91,256.91,0,0,0,17.56-31.21,206.57,206.57,0,0,0,12.46-33.72c2.56-9.57,5.13-22.13,2.23-34.33-1.56-6.55-4.66-13-9.48-19.86A189.25,189.25,0,0,0,612.2,413c-3.67-4.05-7.47-8.23-10.89-12.51a123,123,0,0,1-26.57-79c.2-6.84,1-13.72,1.79-20.38.83-7.13,1.69-14.51,1.81-21.84.18-11.78-1.81-28.29-12.33-40a42.71,42.71,0,0,0-15.93-11,57.32,57.32,0,0,0-18.9-4c-1,0-2-.06-3-.06-11.85,0-23.46,2.92-34.39,5.95-12.89,3.57-25.55,7.46-36.24,10.79L442,245.82c-29.52,9.24-60,18.79-90.36,24.6A310.79,310.79,0,0,1,305.92,276a225.63,225.63,0,0,1-46.17-2.53l-5.16-.87C248.09,271.46,241.44,270.31,234.92,270.31Z"/><path d="M361.15,773.89h-.66a36.22,36.22,0,0,1-18.78-6.18,52.52,52.52,0,0,1-14.48-14.38,88.47,88.47,0,0,1-9.61-19.15c-2.31-6.14-4.24-12.58-6-18.63-4.69-16.39-9.27-31.45-14-46a1166,1166,0,0,0-92.58-211.06c-6.5-11.56-12.67-22.9-16.54-34.51-4.51-13.55-5.06-25.22-1.67-35.66a82.39,82.39,0,0,1,6.57-14A112,112,0,0,0,198.63,364l0,0,0,0c8.93-21.34,3.37-45.7-2.47-64.54a85.42,85.42,0,0,1-4-18.66c-.51-6.77.42-12.21,2.86-16.62,3-5.44,8.4-9.22,16-11.26,10.59-2.83,21.89-.86,32.83,1.05,1.81.32,3.68.65,5.51.95A241.15,241.15,0,0,0,299,257.65a332.48,332.48,0,0,0,49-6c32.52-6.27,65.25-16.57,96.91-26.54l15.95-5c11.46-3.59,25-7.77,38.75-11.6,11.72-3.27,24.18-6.43,36.9-6.43,1,0,2.08,0,3.12.07a61.32,61.32,0,0,1,20.25,4.28,45.77,45.77,0,0,1,17.07,11.73c11.27,12.56,13.39,30.24,13.18,42.86-.13,7.84-1.06,15.72-2,23.34-.84,7.13-1.71,14.49-1.93,21.81a131,131,0,0,0,28.44,84.38c3.66,4.57,7.74,9,11.68,13.37,5.43,6,11,12.12,15.66,18.62,5.17,7.3,8.5,14.25,10.18,21.26,3.13,13.08.39,26.52-2.35,36.77a220.18,220.18,0,0,1-13.28,36A273.28,273.28,0,0,1,617.85,550c-12.45,19-28.17,38.55-48.08,59.61-39.1,41.58-83.5,78.57-126.45,114.34-18.23,15.18-37.08,30.88-58.29,42.44C378.15,770.09,370,773.89,361.15,773.89ZM198.72,364a112.19,112.19,0,0,1-5.22,10.33,82.19,82.19,0,0,0-6.57,14c-3.38,10.42-2.83,22.06,1.68,35.59,3.86,11.61,10,22.94,16.53,34.5a1166.75,1166.75,0,0,1,92.58,211.07c4.75,14.6,9.33,29.66,14,46,1.74,6.05,3.66,12.49,6,18.63a88.19,88.19,0,0,0,9.59,19.12,52.38,52.38,0,0,0,14.46,14.36,36.09,36.09,0,0,0,18.72,6.16h.66c8.78,0,17-3.79,23.83-7.54,21.21-11.55,40-27.25,58.28-42.43,42.94-35.77,87.35-72.76,126.44-114.32,19.9-21.07,35.62-40.56,48.06-59.61a273.18,273.18,0,0,0,18.7-33.33,219.58,219.58,0,0,0,13.27-36c2.74-10.24,5.48-23.66,2.35-36.71-1.67-7-5-13.95-10.17-21.23A199.3,199.3,0,0,0,626.27,404c-3.95-4.33-8-8.81-11.68-13.38a131,131,0,0,1-28.47-84.44c.22-7.32,1.09-14.69,1.93-21.82.89-7.62,1.82-15.5,2-23.33.21-12.6-1.9-30.26-13.15-42.79a45.7,45.7,0,0,0-17-11.71,61.08,61.08,0,0,0-20.21-4.27c-1,0-2.08-.07-3.12-.07-12.71,0-25.16,3.16-36.87,6.43-13.73,3.82-27.29,8-38.75,11.6-5.31,1.65-10.72,3.35-15.95,5-31.66,10-64.4,20.27-96.92,26.53a331.47,331.47,0,0,1-49,6A240.54,240.54,0,0,1,249.42,255c-1.83-.29-3.71-.62-5.52-.94-10.92-1.91-22.22-3.88-32.79-1-7.61,2-13,5.8-16,11.21-2.43,4.39-3.36,9.81-2.85,16.56a84.69,84.69,0,0,0,4,18.64c5.85,18.86,11.41,43.24,2.46,64.61Z"/><path d="M358.38,788.82h-.78a38.14,38.14,0,0,1-19.88-6.65,55.77,55.77,0,0,1-15.3-15.39,94.41,94.41,0,0,1-10.09-20.41c-2.44-6.59-4.43-13.38-6.27-19.78-4.85-17-9.88-33.47-14.95-49a1235.87,1235.87,0,0,0-99-224.55c-7-12.3-13.55-24.36-17.7-36.73-4.83-14.42-5.43-26.83-1.84-37.95a87.18,87.18,0,0,1,7-14.88,114.07,114.07,0,0,0,5.54-11h0c9.51-22.73,3.54-48.66-2.71-68.72a91.16,91.16,0,0,1-4.27-19.88c-.56-7.21.43-13,3-17.69a21.73,21.73,0,0,1,6.37-7.15,32.37,32.37,0,0,1,10.7-4.83c11.28-3,23.32-.89,35,1.17,1.93.34,3.93.69,5.88,1a256,256,0,0,0,52.93,3A353.22,353.22,0,0,0,344.36,233c34.73-6.72,69.67-17.77,103.47-28.46,5.35-1.7,10.88-3.45,16.32-5.15,12.19-3.84,26.62-8.31,41.25-12.41,12.52-3.51,25.82-6.9,39.39-6.9,1.08,0,2.15,0,3.23.06a65.09,65.09,0,0,1,21.56,4.54,48.68,48.68,0,0,1,18.18,12.48c12,13.37,14.24,32.2,14,45.64-.15,8.34-1.14,16.72-2.1,24.83-.9,7.6-1.83,15.45-2.07,23.25-1,31.9,10.11,64.64,30.34,89.83,3.9,4.86,8.26,9.62,12.47,14.23,5.79,6.34,11.78,12.9,16.7,19.82,5.52,7.76,9.08,15.16,10.88,22.62,3.34,13.92.43,28.23-2.48,39.15a234.54,234.54,0,0,1-14.08,38.31,291.69,291.69,0,0,1-19.85,35.47c-13.22,20.27-29.92,41-51.05,63.42C538.9,658,491.59,697.43,445.84,735.55c-19.41,16.18-39.49,32.91-62.09,45.22C376.42,784.77,367.7,788.81,358.38,788.82Zm-147.77-556a47.77,47.77,0,0,0-12.32,1.49,32.4,32.4,0,0,0-10.67,4.82,21.75,21.75,0,0,0-6.35,7.11c-2.58,4.68-3.57,10.45-3,17.64a90.81,90.81,0,0,0,4.26,19.86c6.26,20.07,12.23,46,2.71,68.79h0a116.42,116.42,0,0,1-5.54,11c-2.6,4.73-5.29,9.63-7,14.88-3.59,11.09-3,23.48,1.84,37.88,4.14,12.36,10.73,24.42,17.69,36.71a1237,1237,0,0,1,99,224.56c5.06,15.52,10.09,32,14.94,49,1.84,6.4,3.84,13.19,6.28,19.78a94.14,94.14,0,0,0,10.07,20.38,55.69,55.69,0,0,0,15.27,15.36,38,38,0,0,0,19.84,6.64h.77c9.3,0,18-4.05,25.32-8,22.59-12.3,42.67-29,62.08-45.2,45.74-38.12,93.05-77.54,134.67-121.83,21.14-22.4,37.83-43.14,51-63.41a288.82,288.82,0,0,0,19.85-35.45,233.13,233.13,0,0,0,14.07-38.3c2.91-10.9,5.82-25.2,2.48-39.09-1.79-7.45-5.34-14.85-10.86-22.6-4.92-6.91-10.91-13.46-16.7-19.8-4.21-4.61-8.57-9.38-12.47-14.24-20.24-25.21-31.31-58-30.36-89.9.24-7.8,1.17-15.65,2.07-23.25a247.4,247.4,0,0,0,2.1-24.82c.23-13.42-2-32.23-14-45.57a48.6,48.6,0,0,0-18.14-12.46A65.15,65.15,0,0,0,548,180.23c-14.69-.59-29.09,3.05-42.59,6.83-14.63,4.1-29.06,8.58-41.25,12.41l-16.32,5.15c-33.8,10.69-68.75,21.75-103.48,28.47A354.72,354.72,0,0,1,292,239.51a256.81,256.81,0,0,1-52.94-3c-2-.32-4-.67-5.89-1C225.73,234.18,218.1,232.83,210.61,232.83Z"/><path d="M355.6,803.74l-.88,0a40,40,0,0,1-21-7.12,59,59,0,0,1-16.11-16.4A100.28,100.28,0,0,1,307,758.54c-2.44-6.71-4.5-13.73-6.56-20.93-5.09-17.81-10.43-35.28-15.89-51.93a1305.66,1305.66,0,0,0-105.34-238c-7.41-13-14.43-25.82-18.85-38.94-5.16-15.29-5.82-28.45-2-40.24,1.8-5.57,4.65-10.76,7.41-15.78A125.63,125.63,0,0,0,171.66,341h0c10.07-24.12,3.7-51.64-3-72.92-2.63-8.41-4.08-15.11-4.55-21.09-.61-7.65.43-13.79,3.18-18.77a23.27,23.27,0,0,1,6.76-7.58,34.39,34.39,0,0,1,11.36-5.12c11.95-3.17,24.73-.9,37.08,1.29,2,.36,4.17.74,6.25,1.08a270.23,270.23,0,0,0,56.31,3.23,372.7,372.7,0,0,0,55.68-6.84c36.93-7.17,74.09-19,110-30.4,5.47-1.74,11.13-3.53,16.7-5.28,12.94-4.1,28.26-8.87,43.75-13.23,14.32-4,29.62-7.92,45.21-7.3a68.9,68.9,0,0,1,22.87,4.79,51.36,51.36,0,0,1,19.28,13.23c12.74,14.18,15.1,34.16,14.85,48.42a262.06,262.06,0,0,1-2.25,26.32c-1,8.06-2,16.4-2.21,24.68-1,33.85,10.73,68.58,32.23,95.28,4.15,5.16,8.78,10.21,13.26,15.1,6.16,6.72,12.52,13.67,17.76,21,5.87,8.23,9.65,16.08,11.56,24,3.57,14.76.49,29.95-2.6,41.53a247.74,247.74,0,0,1-14.88,40.6,308.06,308.06,0,0,1-21,37.59c-14,21.49-31.66,43.48-54,67.23-44.16,47-94.36,88.85-142.92,129.33-20.6,17.17-41.91,34.93-65.89,48C374.69,799.44,365.45,803.74,355.6,803.74ZM198.46,214.09a50.36,50.36,0,0,0-13,1.57,34,34,0,0,0-11.32,5.11,23,23,0,0,0-6.73,7.54c-2.74,5-3.78,11.08-3.17,18.71a95.68,95.68,0,0,0,4.55,21.07c6.67,21.3,13,48.84,3,73a122.16,122.16,0,0,1-5.87,11.66c-2.76,5-5.6,10.2-7.4,15.77-3.8,11.77-3.14,24.91,2,40.18,4.42,13.11,11.44,25.89,18.84,38.92a1305.93,1305.93,0,0,1,105.36,238c5.45,16.65,10.8,34.12,15.88,51.93,2.07,7.2,4.12,14.22,6.57,20.92a100,100,0,0,0,10.55,21.65,58.94,58.94,0,0,0,16.09,16.37,39.93,39.93,0,0,0,20.94,7.11h.88c9.83,0,19-4.29,26.82-8.52,24-13.06,45.28-30.82,65.88-48,48.55-40.47,98.75-82.32,142.91-129.32,22.36-23.75,40-45.73,54-67.22a306.52,306.52,0,0,0,21-37.57,248.22,248.22,0,0,0,14.88-40.58c3.08-11.57,6.16-26.74,2.6-41.48-1.91-7.91-5.69-15.75-11.55-24-5.23-7.33-11.6-14.28-17.75-21-4.48-4.89-9.12-9.95-13.27-15.11-21.52-26.72-33.27-61.47-32.25-95.34.25-8.29,1.25-16.62,2.21-24.69a262.11,262.11,0,0,0,2.25-26.31c.25-14.25-2.11-34.2-14.82-48.36A51.49,51.49,0,0,0,579.27,163a68.86,68.86,0,0,0-22.84-4.78c-1.11-.05-2.22-.07-3.32-.07-14.43,0-28.56,3.62-41.86,7.37-15.48,4.36-30.8,9.13-43.75,13.22-5.56,1.75-11.22,3.55-16.69,5.29-35.93,11.42-73.09,23.23-110,30.4a374.3,374.3,0,0,1-55.69,6.84A270.52,270.52,0,0,1,228.75,218c-2.07-.34-4.2-.72-6.25-1.08C214.55,215.53,206.43,214.09,198.46,214.09Z"/><path d="M352.82,818.66l-1,0a41.89,41.89,0,0,1-22.1-7.59,62.55,62.55,0,0,1-16.94-17.41,106.82,106.82,0,0,1-11-22.93c-2.64-7.33-4.78-14.82-6.85-22.07-5.33-18.66-11-37.12-16.82-54.87A1375.39,1375.39,0,0,0,166.34,442.25c-7.86-13.77-15.3-27.28-20-41.15-5.48-16.16-6.19-30.08-2.18-42.53,1.89-5.89,4.9-11.38,7.81-16.68a128.94,128.94,0,0,0,6.2-12.32h0c10.64-25.5,3.87-54.6-3.22-77.1-2.8-8.9-4.34-16-4.84-22.31-.65-8.09.45-14.58,3.35-19.85a24.44,24.44,0,0,1,7.14-8,36.22,36.22,0,0,1,12-5.41c12.65-3.35,26.15-.93,39.21,1.4,2.17.39,4.42.79,6.62,1.16a285.88,285.88,0,0,0,59.7,3.46,394.73,394.73,0,0,0,59-7.27c39.14-7.62,78.51-20.18,116.58-32.33l17.07-5.43c13.72-4.35,29.94-9.42,46.25-14,15.15-4.29,31.32-8.42,47.8-7.78a72.92,72.92,0,0,1,24.19,5,54.38,54.38,0,0,1,20.39,14c13.47,15,16,36.12,15.67,51.2a276.78,276.78,0,0,1-2.39,27.81c-1,8.53-2.08,17.36-2.35,26.12C619.27,296,631.7,332.74,654.48,361c4.4,5.45,9.31,10.8,14,16,6.53,7.11,13.27,14.45,18.81,22.2,6.22,8.7,10.23,17,12.26,25.36,3.78,15.61.53,31.66-2.73,43.91a261.62,261.62,0,0,1-15.68,42.89A325,325,0,0,1,659,551c-14.76,22.71-33.4,45.94-57,71-46.69,49.74-99.79,94-151.15,136.83-21.79,18.17-44.32,37-69.69,50.78C373,814.12,363.2,818.66,352.82,818.66ZM186.31,195.35A52.86,52.86,0,0,0,172.64,197a36,36,0,0,0-12,5.39,24.25,24.25,0,0,0-7.11,8c-2.9,5.25-4,11.72-3.34,19.79.5,6.32,2,13.4,4.84,22.29,7.09,22.52,13.87,51.64,3.22,77.17a131.57,131.57,0,0,1-6.21,12.33c-2.91,5.3-5.91,10.78-7.81,16.66-4,12.43-3.29,26.32,2.18,42.47,4.7,13.86,12.14,27.36,20,41.13A1375.27,1375.27,0,0,1,278.17,693.74C284,711.49,289.67,730,295,748.61c2.08,7.25,4.22,14.74,6.86,22.07a105.7,105.7,0,0,0,11,22.91A62.3,62.3,0,0,0,329.78,811a41.82,41.82,0,0,0,22.06,7.57l1,0c10.36,0,20.11-4.53,28.32-9C406.5,795.74,429,777,450.82,758.79,502.17,716,555.27,671.69,602,622c23.6-25.08,42.24-48.31,57-71a324.82,324.82,0,0,0,22.15-39.69,262.68,262.68,0,0,0,15.68-42.87c3.25-12.24,6.5-28.28,2.72-43.87-2-8.35-6-16.64-12.24-25.32-5.54-7.75-12.28-15.09-18.8-22.19-4.75-5.17-9.66-10.51-14.06-16-22.79-28.24-35.23-65-34.14-100.79.27-8.77,1.33-17.6,2.35-26.13a276.83,276.83,0,0,0,2.39-27.8c.29-15.07-2.2-36.17-15.64-51.14A54.4,54.4,0,0,0,589,141.22a72.68,72.68,0,0,0-24.15-5c-16.47-.64-32.63,3.49-47.77,7.77-16.31,4.62-32.54,9.69-46.25,14-5.69,1.79-11.47,3.64-17.07,5.42-38.07,12.15-77.44,24.71-116.59,32.34a395,395,0,0,1-59,7.27,286.11,286.11,0,0,1-59.72-3.46c-2.2-.37-4.44-.77-6.62-1.16C203.37,196.89,194.75,195.35,186.31,195.35Z"/><path d="M350.09,834l-1.15,0c-15.25-.42-30.69-10.39-41.29-26.66A112,112,0,0,1,296.09,783c-2.64-7.4-4.84-15.12-7-22.58l-.19-.66c-5.57-19.52-11.54-39-17.75-57.8A1444.92,1444.92,0,0,0,153.09,437.05c-14.05-24.54-33.3-58.14-23.54-88.51,2-6.25,5.19-12,8.26-17.65A136,136,0,0,0,144.32,318l.42.17-.42-.17c11.16-26.77,4-57.36-3.48-81-4.46-14.09-8.67-31.92-1.59-44.76,3.82-6.93,10.69-11.75,20.44-14.32,13.41-3.55,27.7-1,41.51,1.51,2.33.42,4.66.84,7,1.23,84.6,14.18,167.86-12.47,248.39-38.26q8.71-2.79,17.44-5.56c14.45-4.6,31.54-10,48.76-14.85,16-4.55,33.08-9,50.52-8.26,19.2.73,36.44,8.08,47.29,20.16,14.28,15.9,16.91,38.28,16.6,54.26a292,292,0,0,1-2.54,29.34c-1.08,9-2.2,18.29-2.49,27.52-1.16,37.64,11.93,76.24,35.92,105.91,4.64,5.74,9.82,11.37,14.83,16.81,13.81,15,28.1,30.53,32.91,50.3,4,16.53.58,33.53-2.86,46.49-18.54,69.7-65.87,125.84-99.86,162-49.25,52.47-105.26,99.19-159.42,144.36-23,19.18-46.78,39-73.56,53.6C371.38,829.17,361,834,350.09,834ZM174.16,177a55.41,55.41,0,0,0-14.24,1.71c-9.5,2.5-16.19,7.17-19.89,13.89-7,12.68-2.39,31.21,1.67,44,7.53,23.81,14.72,54.6,3.45,81.64h0a137.89,137.89,0,0,1-6.55,13c-3.06,5.56-6.21,11.32-8.19,17.48-9.64,30,9.49,63.4,23.46,87.79A1446.11,1446.11,0,0,1,272,701.7c6.21,18.85,12.19,38.31,17.75,57.83l.19.66c2.13,7.45,4.33,15.15,6.95,22.53A111.55,111.55,0,0,0,308.4,806.8c10.44,16,25.61,25.85,40.56,26.26,11.14.35,21.79-4.57,30.71-9.43,26.71-14.54,50.45-34.35,73.42-53.5C507.23,725,563.21,678.28,612.43,625.84c70.82-75.36,90.79-128.34,99.64-161.62,3.42-12.86,6.83-29.72,2.85-46.05-4.75-19.54-18.95-35-32.69-49.9-5-5.45-10.21-11.09-14.87-16.85-24.12-29.84-37.29-68.66-36.12-106.51.29-9.27,1.41-18.58,2.5-27.59,1.15-9.56,2.34-19.45,2.53-29.26.3-15.81-2.29-38-16.37-53.64-10.69-11.9-27.69-19.14-46.65-19.87-17.3-.65-34.31,3.71-50.24,8.23-17.21,4.89-34.3,10.25-48.74,14.84l-17.44,5.57C391.76,164,324.88,185.44,256.91,185.44a293.93,293.93,0,0,1-48.88-4c-2.32-.38-4.65-.8-7-1.22C192.15,178.65,183.05,177,174.16,177Z"/><path d="M347.28,848.5l-1.21,0A41,41,0,0,1,333.39,846,51.66,51.66,0,0,1,321.74,840a69.22,69.22,0,0,1-18.57-19.44,118,118,0,0,1-12-25.44c-2.61-7.45-4.82-15.2-7-22.69l-.48-1.68c-5.81-20.38-12.09-40.82-18.68-60.75a1515.58,1515.58,0,0,0-124.52-278.5c-8.76-15.24-17-30.2-22.31-45.58-6.12-17.9-6.94-33.31-2.52-47.11,2.1-6.53,5.43-12.6,8.65-18.47a148.72,148.72,0,0,0,6.86-13.65l0,0,0,0c11.77-28.27,4.19-60.54-3.73-85.49-3.12-9.85-4.85-17.71-5.43-24.73-.73-9,.47-16.16,3.68-22a26.89,26.89,0,0,1,7.92-8.86,39.93,39.93,0,0,1,13.31-6c14-3.69,29-1,43.47,1.64,2.41.43,4.91.88,7.35,1.3a316.5,316.5,0,0,0,66.47,3.92,435,435,0,0,0,65.68-8.12c43.57-8.53,87.35-22.6,129.7-36.2,5.84-1.88,11.88-3.82,17.81-5.71,15.2-4.85,33.19-10.5,51.26-15.65C544.37,96.28,561,92,578,92c1.21,0,2.43,0,3.65.07a80.49,80.49,0,0,1,26.81,5.56,60.18,60.18,0,0,1,22.6,15.47c14.93,16.62,17.67,40,17.34,56.77-.21,10.34-1.47,20.73-2.68,30.79-1.15,9.47-2.33,19.27-2.64,29C641.89,269.29,655.7,310,681,341.24c4.9,6.05,10.36,12,15.64,17.7,7.25,7.86,14.75,16,20.91,24.57,6.92,9.64,11.38,18.83,13.65,28.1,4.21,17.29.62,35.1-3,48.68A290.6,290.6,0,0,1,711,507.75a359.7,359.7,0,0,1-24.45,44c-16.29,25.15-36.89,50.87-63,78.64-51.76,55.17-110.66,104.31-167.61,151.83-24.17,20.16-49.16,41-77.3,56.34C369.51,843.47,358.69,848.5,347.28,848.5ZM162,157.87a58.8,58.8,0,0,0-15,1.8,39.74,39.74,0,0,0-13.28,6,26.7,26.7,0,0,0-7.89,8.83c-3.2,5.82-4.4,13-3.67,21.94.58,7,2.3,14.86,5.43,24.71,7.92,25,15.5,57.25,3.72,85.56a144.07,144.07,0,0,1-6.87,13.66c-3.21,5.87-6.54,11.93-8.63,18.45-4.42,13.78-3.6,29.17,2.52,47,5.25,15.37,13.54,30.32,22.3,45.56A1514.79,1514.79,0,0,1,265.14,709.92c6.59,19.93,12.88,40.37,18.69,60.75l.48,1.69c2.13,7.49,4.34,15.23,7,22.67a117.43,117.43,0,0,0,12,25.43,69.11,69.11,0,0,0,18.54,19.4,51.29,51.29,0,0,0,11.63,6,40.49,40.49,0,0,0,12.65,2.47l1.21,0c11.39,0,22.19-5,31.3-10,28.13-15.32,53.12-36.17,77.28-56.33,57-47.51,115.85-96.65,167.61-151.82,26.07-27.76,46.66-53.48,62.95-78.62a361,361,0,0,0,24.44-43.94,290.1,290.1,0,0,0,17.28-47.45c3.6-13.57,7.19-31.36,3-48.63-2.26-9.26-6.72-18.44-13.63-28.06-6.16-8.58-13.65-16.7-20.9-24.56-5.29-5.73-10.75-11.66-15.65-17.71-25.33-31.28-39.16-72-37.92-111.69.3-9.73,1.49-19.53,2.64-29,1.21-10.06,2.47-20.45,2.68-30.78.33-16.71-2.41-40.11-17.31-56.7a60.14,60.14,0,0,0-22.56-15.45,80.62,80.62,0,0,0-26.79-5.55c-1.21,0-2.43-.07-3.64-.07-17,0-33.65,4.32-49.32,8.78-18.07,5.15-36.05,10.81-51.25,15.66l-17.81,5.7c-42.35,13.61-86.14,27.67-129.71,36.2a434,434,0,0,1-65.7,8.13,315.34,315.34,0,0,1-66.49-3.93c-2.44-.41-4.94-.86-7.35-1.3C181,159.61,171.41,157.87,162,157.87Z"/><path d="M344.48,863.42l-1.3,0a42.78,42.78,0,0,1-13.26-2.62,53.94,53.94,0,0,1-12.18-6.39A72.55,72.55,0,0,1,298.36,834c-9.65-15.06-14.65-32.65-19.48-49.65-.24-.86-.48-1.72-.73-2.57A1580.37,1580.37,0,0,0,127.63,426.05c-9.21-16-17.93-31.66-23.47-47.79-6.44-18.78-7.32-34.93-2.68-49.41,2.19-6.84,5.68-13.2,9-19.36a148.43,148.43,0,0,0,7.19-14.32c12.34-29.66,4.36-63.5-4-89.67-3.3-10.34-5.11-18.59-5.72-25.95-.78-9.41.47-17,3.84-23.07a28.11,28.11,0,0,1,8.3-9.3,42.12,42.12,0,0,1,14-6.27v0c14.7-3.86,30.4-1,45.59,1.75,2.53.46,5.15.94,7.72,1.37a330.16,330.16,0,0,0,69.86,4.15,455.5,455.5,0,0,0,69-8.54c45.78-9,91.78-23.81,136.26-38.14,23.6-7.6,48-15.46,71.94-22.31,17.62-5,36.42-9.9,55.58-9.19a84.76,84.76,0,0,1,28.13,5.82A63.09,63.09,0,0,1,641.94,92c15.66,17.43,18.52,42,18.16,59.55-.22,10.84-1.54,21.74-2.82,32.28-1.21,9.94-2.46,20.22-2.78,30.43-1.31,41.62,13.2,84.3,39.79,117.08,5.15,6.34,10.88,12.55,16.43,18.56,7.62,8.24,15.49,16.76,22,25.77C740,385.8,744.64,395.44,747,405.17c4.44,18.13.68,36.81-3.1,51.06A305.07,305.07,0,0,1,725.83,506a377.41,377.41,0,0,1-25.6,46.07c-17.06,26.37-38.63,53.34-65.93,82.45C610,660.44,582,687.37,548.81,716.84c-29.67,26.34-60.52,52.08-90.36,77-25.36,21.16-51.57,43-81.1,59.12C367.78,858.15,356.44,863.42,344.48,863.42ZM149.85,139.13A61.38,61.38,0,0,0,134.16,141a41.77,41.77,0,0,0-13.93,6.25,28,28,0,0,0-8.27,9.26c-3.36,6.11-4.61,13.64-3.83,23,.61,7.36,2.42,15.6,5.71,25.93,5.61,17.61,8.75,31.93,9.89,45.08a110.49,110.49,0,0,1-.25,22.72,83,83,0,0,1-5.66,21.94,149.82,149.82,0,0,1-7.2,14.33c-3.37,6.15-6.86,12.51-9.05,19.35-4.63,14.44-3.75,30.58,2.69,49.34,5.53,16.12,14.25,31.8,23.45,47.77A1580.32,1580.32,0,0,1,278.25,781.7c.24.86.48,1.71.73,2.57,4.83,17,9.82,34.58,19.46,49.63a72.33,72.33,0,0,0,19.36,20.4A53.16,53.16,0,0,0,330,860.68a42.48,42.48,0,0,0,13.23,2.62l1.29,0c11.94,0,23.26-5.26,32.82-10.47,29.52-16.07,55.73-38,81.08-59.1,59.76-49.87,121.56-101.43,175.85-159.32,27.3-29.11,48.86-56.07,65.92-82.43a379.3,379.3,0,0,0,25.59-46.06,304,304,0,0,0,18.08-49.74c3.78-14.23,7.54-32.89,3.1-51-2.37-9.71-7.06-19.34-14.31-29.43-6.47-9-14.35-17.51-22-25.75-5.55-6-11.29-12.23-16.44-18.57-26.61-32.8-41.12-75.5-39.81-117.14.32-10.22,1.57-20.5,2.78-30.44,1.28-10.54,2.6-21.44,2.82-32.27.36-17.53-2.5-42.08-18.13-59.48a63.09,63.09,0,0,0-23.67-16.2,84.63,84.63,0,0,0-28.1-5.81q-1.87-.06-3.75-.06c-17.85,0-35.35,4.55-51.8,9.25C510.6,86.14,486.2,94,462.61,101.6c-44.48,14.33-90.48,29.15-136.27,38.14a455.59,455.59,0,0,1-69,8.54,331,331,0,0,1-69.88-4.15c-2.56-.44-5.18-.91-7.72-1.37C169.84,141,159.74,139.13,149.85,139.13Z"/><path d="M344.2,868.81a70.65,70.65,0,0,1-26.89-5.43,82,82,0,0,1-25.72-16.92,124.74,124.74,0,0,1-15.53-18.58,94.38,94.38,0,0,1-7.28-12c-3.51-7-5.55-15.07-7.54-22.88-.14-.57-.29-1.15-.43-1.72-9.39-36.83-21.06-72.37-32.28-105.28-15.17-44.5-30.76-84.6-47.68-122.57-18.58-41.72-40.58-84.68-67.24-131.34C105.4,417.74,96.22,401,91,383.65a116.54,116.54,0,0,1-5.14-34.3,106.51,106.51,0,0,1,5.81-33.85c1-2.86,2.15-5.89,3.68-9.53,2.88-6.86,6.23-13.64,9.47-20.2,1.8-3.64,3.66-7.41,5.42-11.14l.05,0-.05,0c13.29-28.2,8.13-60.18,1.34-87.74-3.59-14.69-6.68-33.23,1.33-46.3a29.38,29.38,0,0,1,8.85-9.13,44.55,44.55,0,0,1,14.54-6c15.11-3.59,31.2-.54,46.77,2.4,2.48.47,5,1,7.55,1.41A371,371,0,0,0,255,134.91h1.79a486,486,0,0,0,61.72-4.13c33.94-4.31,69.74-12.26,116.09-25.75,16.14-4.76,32.51-9.85,48.33-14.77C503,84,523.73,77.56,544.08,71.79c6.32-1.79,13.77-3.85,21.24-5.53a145.55,145.55,0,0,1,32.16-4c1.11,0,2.2,0,3.3,0A85.94,85.94,0,0,1,629.59,68a62.15,62.15,0,0,1,24.09,16.51c15.81,17.95,17.6,43.27,16.32,61.34-.71,9.92-2.34,19.9-3.92,29.56-1.84,11.19-3.73,22.77-4.22,34.4C661,230.47,664.6,251.73,672.5,273a201.57,201.57,0,0,0,13.85,29.55,219.17,219.17,0,0,0,18.27,27.07c3.88,4.92,8,9.81,12,14.53,3.27,3.86,6.66,7.85,9.86,11.81a179.62,179.62,0,0,1,16.82,23.78,82.9,82.9,0,0,1,9.95,26.61,88.07,88.07,0,0,1,.35,26.14,207.74,207.74,0,0,1-5.19,26c-7.31,28.68-16.64,54-28.5,77.41a387.24,387.24,0,0,1-34.68,55.36,564.53,564.53,0,0,1-42.61,50.4c-18.81,20-39.48,39.95-63.17,61.13-19.37,17.3-40.66,35.33-67,56.72-10.87,8.82-22,17.72-32.72,26.32-5.2,4.17-10.58,8.47-15.86,12.72l-3.7,3c-5.59,4.5-11.37,9.14-17.09,13.68-18.64,14.73-38.93,30.06-61,42.34-12.39,6.89-23.53,10.53-34,11.13Q346.14,868.81,344.2,868.81Zm-193-744.91a64.28,64.28,0,0,0-14.91,1.63,44.43,44.43,0,0,0-14.5,6,29.33,29.33,0,0,0-8.83,9.1c-8,13-4.89,31.55-1.31,46.22,6.79,27.58,11.95,59.59-1.35,87.81-1.76,3.74-3.62,7.5-5.42,11.14-3.24,6.56-6.59,13.34-9.47,20.2-1.53,3.64-2.7,6.67-3.68,9.53A106.26,106.26,0,0,0,86,349.35a116.68,116.68,0,0,0,5.14,34.27c5.21,17.32,14.39,34.08,22.59,48.42,26.67,46.67,48.67,89.63,67.25,131.35,16.92,38,32.51,78.07,47.68,122.58,11.22,32.91,22.9,68.45,32.28,105.29.15.57.3,1.14.44,1.72,2,7.8,4,15.87,7.53,22.86a96,96,0,0,0,7.27,12,125.21,125.21,0,0,0,15.52,18.57,81.92,81.92,0,0,0,25.69,16.9,70.23,70.23,0,0,0,30.71,5.31c10.5-.61,21.62-4.25,34-11.13,22.07-12.27,42.35-27.6,61-42.33,5.73-4.53,11.51-9.18,17.1-13.67l3.69-3c5.29-4.25,10.66-8.55,15.86-12.71,10.75-8.61,21.86-17.5,32.73-26.33,26.35-21.39,47.64-39.41,67-56.72,23.69-21.17,44.36-41.16,63.17-61.12a564.28,564.28,0,0,0,42.6-50.39,387.07,387.07,0,0,0,34.67-55.35c11.86-23.4,21.18-48.71,28.49-77.38a206.14,206.14,0,0,0,5.19-26,87.94,87.94,0,0,0-.35-26.12,82.52,82.52,0,0,0-9.94-26.57,178.4,178.4,0,0,0-16.81-23.76c-3.2-4-6.58-8-9.86-11.81-4-4.73-8.16-9.62-12-14.54a219.36,219.36,0,0,1-18.28-27.08,202.16,202.16,0,0,1-13.85-29.56c-7.91-21.31-11.49-42.59-10.65-63.24.49-11.63,2.38-23.21,4.22-34.41,1.58-9.65,3.21-19.63,3.92-29.55,1.28-18.05-.51-43.34-16.29-61.26a62.29,62.29,0,0,0-24.05-16.49,85.81,85.81,0,0,0-28.78-5.73c-10.69-.32-21.95.93-35.44,4-7.46,1.68-14.92,3.73-21.23,5.52C523.76,77.66,503,84.11,483,90.35c-15.82,4.93-32.19,10-48.34,14.77-46.34,13.5-82.15,21.45-116.1,25.76A486.14,486.14,0,0,1,256.78,135H255a371.22,371.22,0,0,1-64.39-5.67c-2.51-.45-5.07-.94-7.55-1.41C172.53,125.94,161.76,123.9,151.23,123.9Z"/><path d="M338.48,882.52A100.64,100.64,0,0,1,283,866.31a143.75,143.75,0,0,1-21.5-17.56,72.55,72.55,0,0,1-10.58-12.4c-5.15-8-7.47-17.94-9.7-27.6l-.39-1.7c-8.53-36.69-20.2-73.13-31.48-108.37-15.61-48.78-30.42-88.93-46.59-126.34-17.62-40.71-39.41-83.61-68.6-135C83.71,419,73.43,399.18,68.88,379.05a123.16,123.16,0,0,1-2.3-40.53,169.54,169.54,0,0,1,9.49-39.81c1.32-3.7,2.74-7.35,4.32-11.38a409.92,409.92,0,0,1,17-37.63c6.64-12.87,10.1-27.32,10.59-44.15.44-15.32-1.68-30.49-3.81-43.31-1.8-10.84-3.37-24.75.5-36.24a31.81,31.81,0,0,1,9.54-14.33c4.91-4.17,11.49-7.16,19.56-8.88,15.86-3.38,32.67-.07,48.93,3.13,2.46.48,5,1,7.48,1.45a433.17,433.17,0,0,0,66.66,7.11,563.24,563.24,0,0,0,65.58-1.9,565,565,0,0,0,60-8.39C401.21,100.57,421,95.9,443,89.91c20.74-5.66,41.7-12,62-18.17C522,66.56,539.67,61.21,557,56.33c6.92-1.95,14.39-4,22.08-5.74,12.85-2.91,23.76-4.29,34-4.29.94,0,1.87,0,2.8,0A89.23,89.23,0,0,1,646,52.11a62.7,62.7,0,0,1,24.94,17.12c16.31,18.88,17,45.42,14.75,64.36-1.12,9.37-3.07,18.81-5,27.94-2.58,12.49-5.24,25.4-5.91,38.53-2.5,49.88,24,95.46,46.61,124.91,2.76,3.61,5.63,7.23,8.4,10.73,4.53,5.71,9.2,11.61,13.44,17.49a162.6,162.6,0,0,1,15.46,25.25,86.31,86.31,0,0,1,8.16,27.75c2.07,18.2-2.58,37.36-6.69,54.26-6.4,26-14,53.84-26.09,80.72-16.56,36.74-42.75,74.08-77.85,111-19.33,20.4-40.65,40.66-65.19,62-20.15,17.48-42.26,35.5-69.58,56.69C512.36,777.9,503,785.05,494,792c-7.53,5.76-15.31,11.72-22.94,17.63-3.29,2.53-6.63,5.13-9.86,7.63-3.82,3-7.77,6-11.67,9-19.42,15-40.25,30.66-62.55,43.31-11.51,6.54-23.14,10.59-34.57,12A111.17,111.17,0,0,1,338.48,882.52Zm-241-632.79,0,0a408.46,408.46,0,0,0-17,37.62c-1.58,4-3,7.67-4.33,11.38a169.77,169.77,0,0,0-9.48,39.78A122.9,122.9,0,0,0,69,379c4.54,20.12,14.82,39.89,25.25,58.25,29.19,51.41,51,94.31,68.6,135,16.18,37.41,31,77.57,46.6,126.35,11.28,35.24,22.94,71.68,31.48,108.38l.39,1.69c2.23,9.66,4.54,19.64,9.69,27.57a71.49,71.49,0,0,0,10.56,12.38A142.92,142.92,0,0,0,283,866.22c19.79,13.06,44.43,18.49,69.38,15.3,11.41-1.45,23-5.5,34.53-12,22.3-12.65,43.12-28.32,62.54-43.3,3.9-3,7.85-6.07,11.67-9,3.23-2.51,6.57-5.1,9.85-7.63,7.64-5.91,15.42-11.87,22.94-17.63,9-6.92,18.36-14.07,27.49-21.16,27.31-21.19,49.42-39.2,69.57-56.69,24.54-21.29,45.86-41.55,65.19-61.95,35.09-36.9,61.27-74.23,77.83-111,12.1-26.87,19.68-54.67,26.08-80.7,4.1-16.9,8.76-36.05,6.69-54.23a86.37,86.37,0,0,0-8.15-27.72,162.37,162.37,0,0,0-15.45-25.23c-4.24-5.88-8.91-11.78-13.43-17.48-2.78-3.51-5.65-7.13-8.41-10.74-22.66-29.46-49.14-75.07-46.63-125,.67-13.15,3.33-26.06,5.91-38.55,1.89-9.13,3.84-18.56,5-27.93,2.27-18.92,1.56-45.43-14.73-64.28A62.62,62.62,0,0,0,646,52.2a89.23,89.23,0,0,0-30-5.76c-11.13-.27-22.82,1.08-36.83,4.25C571.41,52.44,564,54.48,557,56.43,539.7,61.31,522,66.66,505,71.84,484.68,78,463.71,84.34,443,90c-22,6-41.73,10.66-60.49,14.28a562.66,562.66,0,0,1-60.06,8.39,563.41,563.41,0,0,1-65.59,1.9,433.43,433.43,0,0,1-66.68-7.11c-2.48-.47-5-1-7.48-1.45-16.25-3.2-33.06-6.51-48.88-3.13-8.06,1.72-14.63,4.7-19.52,8.86A31.69,31.69,0,0,0,104.75,126c-3.85,11.47-2.28,25.37-.49,36.19,2.13,12.83,4.25,28,3.81,43.33-.49,16.85-3.95,31.31-10.6,44.2Z"/><path d="M328.58,888.93q-6.45,0-12.67-.56A116.54,116.54,0,0,1,277,878.13,163.81,163.81,0,0,1,249.82,862c-5.47-4-9.89-7.61-13.73-12.57-6.77-8.75-9.28-20.53-11.72-31.91-.11-.53-.23-1.07-.34-1.6-7.16-33.35-17.14-66.51-26.79-98.57q-1.62-5.43-3.26-10.85c-15.57-52-29.32-91.37-44.59-127.75-9.17-21.84-19.73-44.4-32.28-69-10.33-20.21-21.88-41.55-36.37-67.19-11.92-21.1-23.5-43.84-27.47-67.17-2.5-14.67-2.3-29.75.63-46.09,2.35-13.1,6.38-27,13.07-45.12.87-2.37,1.78-4.76,2.65-7.08.75-2,1.51-4,2.25-6,5.56-14.95,11.18-29.51,18.79-43.29l0,0,0,0c7-12.73,11.2-27,12.74-43.54,1.4-15,.45-29.51-.54-42-.89-11.09-1.17-23.87,3.46-34.56a33.13,33.13,0,0,1,10.53-13.5c5.17-3.9,11.91-6.66,20-8.2,16.31-3.09,33.55.43,50.23,3.83,2.37.48,4.82,1,7.21,1.45A504.55,504.55,0,0,0,262,99.82a655.24,655.24,0,0,0,66.44.4,526.51,526.51,0,0,0,60.94-6.13c19.44-3.08,39.64-7.32,61.78-13C475.11,75,499.28,67.88,522.65,61c14.76-4.38,30-8.9,45-13.09,7.08-2,14.7-4,22.51-5.84,13.2-3,24.82-4.48,35.44-4.48.71,0,1.41,0,2.11,0a90.78,90.78,0,0,1,30.77,5.68,62.11,62.11,0,0,1,25.33,17.43c16.54,19.49,16.13,46.75,12.87,66.19-1.47,8.77-3.67,17.62-5.81,26.17-3.34,13.41-6.79,27.28-7.64,41.56a129.93,129.93,0,0,0,2.68,34.16,172.89,172.89,0,0,0,10.64,33c8.22,19.12,20.1,38.92,36.31,60.54,1.5,2,3,4,4.51,6,5.78,7.67,11.76,15.61,16.86,23.56A146.3,146.3,0,0,1,768,378.11a89.86,89.86,0,0,1,6.17,28.39c.83,16.16-3.17,33-7,49.33-.47,2-1,4-1.42,6-.79,3.32-1.57,6.65-2.33,9.88-5.94,25.39-11.55,49.37-20.79,72.67a307.59,307.59,0,0,1-32.52,60,434.32,434.32,0,0,1-44.39,54.2,822.34,822.34,0,0,1-66,61.6c-20.55,17.32-43.06,35-70.83,55.56-8.16,6.06-16.49,12.16-24.54,18-8.8,6.44-17.89,13.1-26.8,19.73-6.39,4.76-12.88,9.64-19.17,14.37l-2.68,2c-20,15-40.66,30.57-62.92,43.46A107.56,107.56,0,0,1,358.3,886.1,162.61,162.61,0,0,1,328.58,888.93ZM150.33,85a71.85,71.85,0,0,0-13.44,1.19c-8.1,1.54-14.82,4.29-20,8.18a33.09,33.09,0,0,0-10.5,13.46c-4.62,10.67-4.34,23.43-3.45,34.51,1,12.44,1.94,27,.55,42-1.55,16.58-5.72,30.84-12.76,43.58-7.6,13.77-13.22,28.33-18.78,43.28-.74,2-1.51,4-2.25,6-.87,2.31-1.78,4.71-2.66,7.08-6.68,18.1-10.71,32-13.06,45.1-2.92,16.33-3.13,31.39-.63,46.05,4,23.32,15.55,46.05,27.46,67.14,14.49,25.64,26,47,36.37,67.19,12.55,24.56,23.11,47.11,32.28,69,15.27,36.38,29,75.78,44.6,127.76q1.63,5.42,3.26,10.85C207,749.34,217,782.5,224.13,815.85c.11.53.23,1.06.34,1.6,2.43,11.37,4.95,23.13,11.7,31.86,3.83,5,8.25,8.6,13.71,12.56A164,164,0,0,0,277,878a116.24,116.24,0,0,0,38.89,10.22A155.7,155.7,0,0,0,358.28,886a107.61,107.61,0,0,0,34.42-12.72c22.26-12.89,42.92-28.42,62.91-43.45l2.68-2c6.28-4.73,12.78-9.62,19.17-14.37,8.91-6.63,18-13.29,26.8-19.73,8-5.9,16.38-12,24.54-18.05,27.77-20.59,50.27-38.24,70.83-55.56a820.28,820.28,0,0,0,66-61.59A435.92,435.92,0,0,0,710,604.32a307.32,307.32,0,0,0,32.5-59.94c9.24-23.29,14.85-47.27,20.79-72.65.76-3.23,1.54-6.57,2.33-9.89.46-2,1-4.06,1.42-6,3.87-16.29,7.87-33.14,7-49.29a89.88,89.88,0,0,0-6.16-28.36,146.24,146.24,0,0,0-13.78-26.24c-5.09-8-11.07-15.88-16.85-23.55-1.48-2-3-4-4.51-6-16.21-21.62-28.1-41.43-36.33-60.56a174.49,174.49,0,0,1-10.64-33,130.12,130.12,0,0,1-2.69-34.18c.86-14.3,4.31-28.17,7.66-41.59,2.13-8.55,4.33-17.39,5.8-26.16,3.25-19.42,3.67-46.65-12.85-66.11a61.93,61.93,0,0,0-25.29-17.39,90.59,90.59,0,0,0-30.73-5.68c-11.17-.21-23.45,1.25-37.53,4.46-7.8,1.78-15.43,3.86-22.5,5.84-15,4.18-30.24,8.71-45,13.08C499.3,68,475.14,75.14,451.19,81.23c-22.14,5.64-42.36,9.88-61.8,13a524.05,524.05,0,0,1-60.95,6.13A658.48,658.48,0,0,1,262,99.93a504.68,504.68,0,0,1-67.7-8.46c-2.39-.47-4.84-1-7.21-1.45C174.94,87.54,162.49,85,150.33,85Z"/><path d="M315.23,896.06a138.07,138.07,0,0,1-44.12-6.81,190,190,0,0,1-32.83-14.81c-5.45-3.08-11.69-6.85-16.88-12.74-3.76-4.28-6.73-9.81-9.06-16.91a164,164,0,0,1-4.68-19.4l-.28-1.41c-6.31-31.53-15.19-62.92-23.77-93.27-1.6-5.64-3.24-11.47-4.85-17.21-10.85-38.79-24.4-84.47-42.59-129.14C116.46,536,91.5,489.8,67.48,447.09,54.05,423.23,41.17,397.5,37.78,371a125.46,125.46,0,0,1-.57-26.2,163.23,163.23,0,0,1,4.14-25.44c3.87-16.25,9.58-31.8,16.64-50.44l.65-1.72c1.62-4.26,3.29-8.66,4.83-13,.51-1.43,1-2.86,1.52-4.3,5.33-15,10.84-30.58,19.08-44.67l0,0,0,0c7.35-12.59,12.21-26.64,14.85-42.94,2.22-13.74,2.57-27,2.76-40.58.14-10.65,1-22.89,6.42-32.87,6-11,16.42-17.59,32-20.18,16.8-2.8,34.49.93,51.6,4.54,2.26.47,4.6,1,6.88,1.43a594.61,594.61,0,0,0,68.73,9.8c21.05,1.81,42.77,2.69,66.36,2.69h.92c41.32,0,79.85-4.82,124.92-15.5,26.75-6.34,53.69-14.17,79.74-21.75,12.85-3.74,26.14-7.6,39.19-11.22,7.24-2,15-4.12,22.94-5.94,13.69-3.15,25.73-4.69,36.71-4.69h1.54a91.6,91.6,0,0,1,31.48,5.59,61.22,61.22,0,0,1,25.7,17.74c16.82,20.06,15.26,48.06,11,68-1.77,8.28-4.2,16.64-6.56,24.72-4.14,14.23-8.43,28.94-9.47,44.29a121.6,121.6,0,0,0,2.92,34.92,172.88,172.88,0,0,0,11.63,33.6c10.77,23.49,26,45.45,38.1,61.95l.76,1c7.4,10.16,14.38,19.76,20.14,29.89a135,135,0,0,1,12.11,27.25,94.78,94.78,0,0,1,4.17,29c-.12,14.37-3.75,29.39-7.27,43.91-1,4.12-2,8.38-3,12.57-2,8.83-3.8,17.57-5.53,26-4.15,20.25-8.07,39.39-14.62,58.34-7.06,20.39-17.53,41.16-31.1,61.72a391.31,391.31,0,0,1-44.87,55.61,740.35,740.35,0,0,1-66.8,61.25c-21,17.15-43.87,34.44-72.1,54.44-7.6,5.39-15.37,10.82-22.88,16.07-9.64,6.74-19.61,13.71-29.36,20.7-6.42,4.59-13.47,9.71-22.18,16.1L456.24,837c-18.47,13.57-37.58,27.61-57.61,39.44a122.36,122.36,0,0,1-34.32,13.42,218.11,218.11,0,0,1-47.94,6.18ZM152.57,67.81a75.14,75.14,0,0,0-12.46,1c-15.54,2.58-26,9.17-31.92,20.13-5.39,10-6.26,22.18-6.41,32.83-.18,13.54-.53,26.84-2.76,40.58-2.64,16.32-7.5,30.38-14.87,43C75.92,219.4,70.42,234.94,65.09,250l-1.52,4.29c-1.55,4.34-3.22,8.74-4.83,13L58.09,269C51,287.62,45.32,303.16,41.45,319.4a164.31,164.31,0,0,0-4.14,25.43A125.84,125.84,0,0,0,37.88,371c3.38,26.47,16.27,52.19,29.69,76,24,42.71,49,88.91,68.69,137.28C154.45,629,168,674.68,178.86,713.48c1.6,5.73,3.25,11.56,4.85,17.2,8.58,30.36,17.46,61.75,23.77,93.28l.28,1.41c2.62,13.13,5.32,26.71,13.72,36.26,5.17,5.88,11.41,9.65,16.85,12.72a190.26,190.26,0,0,0,32.82,14.8A137.78,137.78,0,0,0,315.23,896h1.14a218,218,0,0,0,47.92-6.18,122.26,122.26,0,0,0,34.29-13.41c20-11.82,39.13-25.86,57.6-39.43l5.68-4.17c8.71-6.39,15.76-11.51,22.18-16.11,9.75-7,19.72-13.95,29.36-20.69,7.51-5.25,15.28-10.68,22.88-16.07,28.23-20,51.14-37.29,72.1-54.44a743,743,0,0,0,66.79-61.24A392.34,392.34,0,0,0,720,608.62c13.56-20.56,24-41.32,31.09-61.7,6.54-18.95,10.46-38.08,14.61-58.33,1.73-8.46,3.52-17.2,5.53-26,.94-4.2,2-8.46,3-12.58,3.51-14.51,7.14-29.52,7.27-43.88a94.89,94.89,0,0,0-4.17-29,134.19,134.19,0,0,0-12.1-27.23c-5.75-10.13-12.74-19.72-20.13-29.88l-.76-1c-12.09-16.51-27.34-38.47-38.11-62a173.33,173.33,0,0,1-11.64-33.62,121.81,121.81,0,0,1-2.92-35c1-15.36,5.33-30.07,9.47-44.31,2.36-8.08,4.79-16.43,6.56-24.71,4.27-19.94,5.83-47.91-11-67.94a61.13,61.13,0,0,0-25.65-17.7,91.43,91.43,0,0,0-31.45-5.59h-1.54c-11,0-23,1.54-36.69,4.69-7.9,1.82-15.69,3.93-22.94,5.94-13,3.62-26.33,7.48-39.18,11.22-26.06,7.58-53,15.41-79.75,21.75-45.08,10.68-83.61,15.46-124.94,15.5h-.92c-23.6,0-45.32-.88-66.37-2.69a595.1,595.1,0,0,1-68.74-9.8c-2.29-.46-4.62-1-6.88-1.43C178.76,70.6,165.51,67.81,152.57,67.81Z"/><path d="M299.47,911.13A153.52,153.52,0,0,1,263.12,907,219.68,219.68,0,0,1,224,893.31c-6.6-3-14.15-6.74-20.36-13.13-4.59-4.72-8.13-11-10.83-19.13-2.38-7.19-3.82-14.88-5.21-22.32l-.22-1.16c-5.76-30.76-13.89-61.43-21.76-91.09-1.93-7.29-3.93-14.84-5.86-22.26C155,705.77,148.5,681.5,141.2,657.39c-7.36-24.27-14.78-45.81-22.7-65.84C98.67,541.39,72,492.64,48.64,450.88,33.47,423.81,19,394.61,16.2,364.53a132.79,132.79,0,0,1,.25-26.86,175.72,175.72,0,0,1,4.92-26c4.5-17.16,11-33.75,17.86-51.3,1.36-3.47,2.76-7.06,4.13-10.61,2-5.3,4.21-11,6.16-16.65,1-2.79,1.92-5.64,2.84-8.39,5.36-15.95,10.91-32.43,19.92-47.14A142.93,142.93,0,0,0,89.21,135.7c3.32-13.73,4.87-27.12,6.24-38.93l.24-2.09C97,83.78,99,72.4,105.23,63c7-10.49,18.08-16.7,34-19,17.6-2.54,36.06,1.48,53.91,5.36,2.16.47,4.39,1,6.57,1.42,22.91,4.86,46.1,8.56,70.91,11.34,21.93,2.45,44.58,4.1,69.24,5.05a479,479,0,0,0,63.76-1.63A530,530,0,0,0,469,55.07c29.72-6.54,59.61-15.09,88.52-23.36,11.42-3.27,23.23-6.65,34.82-9.84,7.51-2.07,15.59-4.25,23.76-6.14,14.43-3.34,27.08-5,38.63-5h1a94.73,94.73,0,0,1,32.7,5.59c10.93,4.08,19.84,10.25,26.52,18.33,7.52,9.12,11.91,20.6,13,34.12.93,11.16-.34,23.57-3.79,36.87-2.07,8-4.76,16.09-7.36,23.91-5.06,15.2-10.3,30.92-11.56,47.52-1.65,22.13,3.6,45.37,16.06,71,10.79,22.23,25.33,43.15,40.53,64.4,7.38,10.38,15.06,21.47,20.75,32.81,10.27,20.46,14.22,38.62,12.83,58.87-.88,13.09-4.2,26.16-7.72,40-1.54,6.07-3.13,12.33-4.48,18.54-2.63,12.09-4.61,24-6.52,35.43-3,18.05-5.86,35.09-10.94,52.17-6.35,21.3-16.5,43-30.17,64.52a365.58,365.58,0,0,1-46.09,58,689.78,689.78,0,0,1-68.7,61.89c-21.71,17.24-45.4,34.46-74.56,54.18-7.36,5-14.88,10-22.15,14.86-10.47,7-21.3,14.2-31.87,21.48-7.25,5-14.73,10.25-22.87,16.08-3.95,2.82-7.95,5.7-11.81,8.49-17,12.29-34.64,25-52.9,36-9.72,5.85-21.09,10.55-34.75,14.34-20.13,5.6-37.91,9-54.36,10.33Q307.29,911.13,299.47,911.13ZM72.32,177.59l.05,0c-9,14.69-14.55,31.17-19.91,47.11-.93,2.75-1.88,5.6-2.85,8.39-1.94,5.68-4.11,11.36-6.15,16.66-1.37,3.55-2.78,7.14-4.13,10.61C32.45,277.94,26,294.52,21.47,311.68a175.48,175.48,0,0,0-4.92,26,132.58,132.58,0,0,0-.24,26.84c2.83,30.06,17.25,59.25,32.42,86.31,23.41,41.76,50,90.52,69.87,140.68,7.91,20,15.34,41.57,22.69,65.85,7.31,24.11,13.76,48.38,18.57,66.84,1.93,7.41,3.93,15,5.86,22.26,7.87,29.66,16,60.33,21.76,91.09l.22,1.16c1.39,7.43,2.83,15.12,5.21,22.31,2.69,8.13,6.23,14.38,10.8,19.09,6.2,6.38,13.74,10.11,20.33,13.1a218,218,0,0,0,39.11,13.65c16.15,3.91,33.28,5,52.39,3.48C332,909,349.76,905.62,369.88,900c13.66-3.79,25-8.48,34.73-14.33,18.25-11,35.86-23.69,52.89-36,3.86-2.79,7.86-5.67,11.81-8.49,8.14-5.83,15.63-11.09,22.88-16.08,10.56-7.28,21.39-14.51,31.86-21.49,7.27-4.85,14.79-9.87,22.15-14.85,29.16-19.72,52.85-36.94,74.55-54.18a689.74,689.74,0,0,0,68.7-61.88,367,367,0,0,0,46.08-57.93c13.66-21.51,23.8-43.21,30.15-64.5,5.08-17.07,7.92-34.11,10.93-52.16,1.92-11.47,3.9-23.34,6.53-35.44,1.35-6.2,2.94-12.47,4.48-18.53,3.52-13.83,6.84-26.9,7.72-40,1.39-20.24-2.56-38.38-12.82-58.82-5.69-11.34-13.37-22.42-20.74-32.8-15.21-21.25-29.75-42.17-40.55-64.42-12.46-25.67-17.72-48.92-16.06-71.08,1.26-16.61,6.5-32.34,11.56-47.55,2.6-7.81,5.29-15.89,7.36-23.9,9.73-37.57.35-59.29-9.23-70.89-6.66-8.07-15.57-14.22-26.47-18.3a94.84,94.84,0,0,0-32.67-5.59h-1c-11.55,0-24.19,1.62-38.61,5C608,17.72,599.91,19.9,592.4,22c-11.59,3.19-23.4,6.57-34.82,9.84-28.91,8.27-58.81,16.82-88.53,23.36a532.43,532.43,0,0,1-65.44,10.49,479.24,479.24,0,0,1-63.77,1.62c-24.67-1-47.32-2.6-69.25-5.05-24.81-2.77-48-6.48-70.92-11.34l-6.57-1.41c-17.84-3.89-36.29-7.9-53.88-5.37-15.86,2.29-26.95,8.48-33.9,18.94-6.24,9.39-8.27,20.76-9.53,31.65l-.24,2.08c-1.37,11.81-2.92,25.2-6.24,38.95a142.86,142.86,0,0,1-16.94,41.89Z"/><path d="M285.58,919.49A168.42,168.42,0,0,1,257,917.13a245.79,245.79,0,0,1-44.89-12.24c-7.64-2.87-16.39-6.49-23.55-13.3-5.37-5.11-9.45-12-12.48-21.14-2.66-8-4.18-16.66-5.64-25l-.14-.77c-5.23-29.69-12.58-59.35-19.69-88-2.15-8.65-4.36-17.59-6.48-26.38C133.67,687,122,640.92,104.9,596.18a773.91,773.91,0,0,0-32.32-71.95C61.24,501.81,49.35,480.08,35,454.37,18.28,424.46,2.51,392.2.29,359a138.72,138.72,0,0,1,1-27.34A185.33,185.33,0,0,1,6.82,305.2c4.93-17.41,11.81-34.15,19.09-51.88,2.7-6.59,5.5-13.4,8.16-20.19,2.88-7.33,5-13,6.74-18.34,1.26-3.75,2.48-7.58,3.67-11.29,5.44-17,11.06-34.56,20.93-50l0,0,0,0a170.61,170.61,0,0,0,18.13-38.78c4.18-12.63,6.92-24.91,9.35-35.74.49-2.2,1-4.28,1.43-6.35,2.38-10.41,5.55-21.24,12.57-30,7.87-9.8,19.46-15.51,35.43-17.46,18.16-2.22,37.13,2,55.47,6.14l6.06,1.35c43.22,9.5,89.69,16.06,142.07,20.09,45.84,3.52,85.14,1,131.42-8.47,32.06-6.55,64.26-15.62,95.4-24.4,10-2.81,20.29-5.72,30.41-8.49,7.69-2.1,15.94-4.31,24.2-6.24,14.95-3.48,28-5.18,40-5.18h.33a96.57,96.57,0,0,1,33.42,5.51C712.2,9.62,721.26,15.89,728,24.14c7.67,9.42,11.92,21.26,12.63,35.18.59,11.46-1.18,24.14-5.28,37.67-2.32,7.67-5.21,15.41-8,22.89-5.93,15.87-12.07,32.29-13.53,49.83a110.78,110.78,0,0,0,3,35.07,164.36,164.36,0,0,0,12.45,33.57c10.69,21.88,25.29,42.65,39.41,62.74l4.84,6.88c7.37,10.62,14.94,22.11,20.27,34.19,9,20.39,11.79,39.06,9.1,60.54-1.44,11.57-4.58,23.11-7.9,35.33-2.16,7.93-4.39,16.13-6.1,24.32-3,14.37-4.78,28.4-6.49,42-2.07,16.38-4,31.86-8,47.48-5.52,21.87-15.18,44.18-28.73,66.32a340.55,340.55,0,0,1-46.58,59.38c-20.24,20.93-43,41-69.52,61.53-21.8,16.83-46.61,34.17-75.84,53-7.13,4.61-14.4,9.24-21.44,13.71-11,7-22.4,14.25-33.49,21.6-7.61,5-15.42,10.35-23.22,15.79-5.89,4.11-11.84,8.34-17.59,12.43-15.34,10.92-31.2,22.2-47.49,32.19-9.35,5.74-20.35,10.52-34.62,15-23,7.31-42.08,11.89-60,14.42A215.18,215.18,0,0,1,285.58,919.49ZM152.74,24.69a86,86,0,0,0-10.41.61C126.39,27.25,114.83,33,107,42.73c-7,8.71-10.17,19.53-12.55,29.92C94,74.72,93.48,76.8,93,79a363.71,363.71,0,0,1-9.35,35.75A170.87,170.87,0,0,1,65.5,153.56c-9.86,15.42-15.49,33-20.92,50-1.19,3.7-2.42,7.53-3.67,11.29-1.78,5.34-3.86,11-6.74,18.34-2.66,6.79-5.46,13.6-8.17,20.19-7.28,17.72-14.15,34.46-19.08,51.87a185.21,185.21,0,0,0-5.58,26.42A137.62,137.62,0,0,0,.4,359c2.21,33.21,18,65.46,34.68,95.36C49.44,480,61.33,501.76,72.67,524.19a775.74,775.74,0,0,1,32.33,72c17.13,44.74,28.77,90.78,39.22,134.1,2.12,8.79,4.33,17.74,6.48,26.38,7.11,28.69,14.46,58.35,19.69,88l.14.77c1.46,8.33,3,16.95,5.64,25,3,9.11,7.09,16,12.45,21.1,7.15,6.8,15.89,10.42,23.52,13.28A245.49,245.49,0,0,0,257,917c18.18,3.11,37.42,3.15,58.84.12,17.91-2.54,37-7.12,60-14.41,14.26-4.53,25.25-9.31,34.6-15,16.28-10,32.14-21.27,47.48-32.18,5.75-4.09,11.7-8.33,17.6-12.43,7.79-5.45,15.6-10.76,23.21-15.79,11.1-7.36,22.48-14.6,33.49-21.6,7-4.48,14.32-9.11,21.44-13.72,29.23-18.86,54-36.21,75.84-53,26.53-20.47,49.27-40.6,69.51-61.52a340,340,0,0,0,46.56-59.37c13.54-22.12,23.2-44.42,28.72-66.28,3.93-15.62,5.88-31.1,8-47.47,1.71-13.57,3.48-27.61,6.49-42,1.71-8.19,3.94-16.4,6.1-24.33,3.32-12.21,6.46-23.75,7.89-35.31,2.7-21.46-.11-40.12-9.09-60.48-5.33-12.08-12.88-23.57-20.26-34.18l-4.83-6.88c-14.12-20.09-28.73-40.87-39.42-62.76a163.91,163.91,0,0,1-12.46-33.58,110.71,110.71,0,0,1-3-35.1c1.47-17.57,7.61-34,13.54-49.87,2.8-7.48,5.69-15.21,8-22.88,4.09-13.52,5.87-26.19,5.28-37.63-.72-13.91-5-25.72-12.61-35.12C721.19,16,712.15,9.71,701,5.61A96.61,96.61,0,0,0,667.65.1h-.33c-11.93,0-25,1.7-40,5.18-8.25,1.93-16.5,4.14-24.19,6.24-10.12,2.77-20.44,5.68-30.41,8.49-31.15,8.78-63.35,17.85-95.41,24.41-46.29,9.45-85.6,12-131.45,8.46-52.38-4-98.85-10.59-142.08-20.08l-6.06-1.36C182.92,28.12,167.65,24.69,152.74,24.69Z"/></g></g></svg>